  0
SECTION
  2
BLOCKS
  0
ENDSEC
  0
SECTION
  2
ENTITIES
  0
LINE
  8
0
 10
949.323
 20
0.228851
 11
958.623
 21
0.914902
  0
LINE
  8
0
 10
958.623
 20
0.914902
 11
967.879
 21
2.05646
  0
LINE
  8
0
 10
967.879
 20
2.05646
 11
977.067
 21
3.65079
  0
LINE
  8
0
 10
977.067
 20
3.65079
 11
986.166
 21
5.69406
  0
LINE
  8
0
 10
986.166
 20
5.69406
 11
995.154
 21
8.18134
  0
LINE
  8
0
 10
995.154
 20
8.18134
 11
1004.01
 21
11.1066
  0
LINE
  8
0
 10
1004.01
 20
11.1066
 11
1012.71
 21
14.4629
  0
LINE
  8
0
 10
1012.71
 20
14.4629
 11
1021.24
 21
18.242
  0
LINE
  8
0
 10
1021.24
 20
18.242
 11
1029.57
 21
22.435
  0
LINE
  8
0
 10
1029.57
 20
22.435
 11
1037.68
 21
27.0316
  0
LINE
  8
0
 10
1037.68
 20
27.0316
 11
1045.56
 21
32.0208
  0
LINE
  8
0
 10
1045.56
 20
32.0208
 11
1053.18
 21
37.3906
  0
LINE
  8
0
 10
1053.18
 20
37.3906
 11
1060.53
 21
43.128
  0
LINE
  8
0
 10
1060.53
 20
43.128
 11
1067.6
 21
49.2193
  0
LINE
  8
0
 10
1067.6
 20
49.2193
 11
1074.35
 21
55.6497
  0
LINE
  8
0
 10
1074.35
 20
55.6497
 11
1080.78
 21
62.4038
  0
LINE
  8
0
 10
1080.78
 20
62.4038
 11
1086.87
 21
69.4653
  0
LINE
  8
0
 10
1086.87
 20
69.4653
 11
1092.61
 21
76.8171
  0
LINE
  8
0
 10
1092.61
 20
76.8171
 11
1097.98
 21
84.4417
  0
LINE
  8
0
 10
1097.98
 20
84.4417
 11
1102.97
 21
92.3205
  0
LINE
  8
0
 10
1102.97
 20
92.3205
 11
1107.57
 21
100.435
  0
LINE
  8
0
 10
1107.57
 20
100.435
 11
1111.76
 21
108.765
  0
LINE
  8
0
 10
1111.76
 20
108.765
 11
1115.54
 21
117.29
  0
LINE
  8
0
 10
1115.54
 20
117.29
 11
1118.89
 21
125.991
  0
LINE
  8
0
 10
1118.89
 20
125.991
 11
1121.82
 21
134.846
  0
LINE
  8
0
 10
1121.82
 20
134.846
 11
1124.31
 21
143.834
  0
LINE
  8
0
 10
1124.31
 20
143.834
 11
1136.37
 21
188.636
  0
LINE
  8
0
 10
1136.37
 20
188.636
 11
1137.33
 21
193.544
  0
LINE
  8
0
 10
1137.33
 20
193.544
 11
820.184
 21
255.19
  0
LINE
  8
0
 10
820.184
 20
255.19
 11
820.102
 21
255.043
  0
LINE
  8
0
 10
820.102
 20
255.043
 11
818.928
 21
253.172
  0
LINE
  8
0
 10
818.928
 20
253.172
 11
817.664
 21
251.361
  0
LINE
  8
0
 10
817.664
 20
251.361
 11
816.313
 21
249.613
  0
LINE
  8
0
 10
816.313
 20
249.613
 11
814.878
 21
247.935
  0
LINE
  8
0
 10
814.878
 20
247.935
 11
813.362
 21
246.328
  0
LINE
  8
0
 10
813.362
 20
246.328
 11
811.769
 21
244.798
  0
LINE
  8
0
 10
811.769
 20
244.798
 11
810.102
 21
243.348
  0
LINE
  8
0
 10
810.102
 20
243.348
 11
808.367
 21
241.982
  0
LINE
  8
0
 10
808.367
 20
241.982
 11
806.567
 21
240.702
  0
LINE
  8
0
 10
806.567
 20
240.702
 11
804.706
 21
239.513
  0
LINE
  8
0
 10
804.706
 20
239.513
 11
802.789
 21
238.416
  0
LINE
  8
0
 10
802.789
 20
238.416
 11
800.82
 21
237.414
  0
LINE
  8
0
 10
800.82
 20
237.414
 11
798.805
 21
236.51
  0
LINE
  8
0
 10
798.805
 20
236.51
 11
796.748
 21
235.706
  0
LINE
  8
0
 10
796.748
 20
235.706
 11
794.654
 21
235.004
  0
LINE
  8
0
 10
794.654
 20
235.004
 11
792.528
 21
234.406
  0
LINE
  8
0
 10
792.528
 20
234.406
 11
790.375
 21
233.912
  0
LINE
  8
0
 10
790.375
 20
233.912
 11
788.2
 21
233.525
  0
LINE
  8
0
 10
788.2
 20
233.525
 11
786.009
 21
233.245
  0
LINE
  8
0
 10
786.009
 20
233.245
 11
783.807
 21
233.073
  0
LINE
  8
0
 10
783.807
 20
233.073
 11
781.6
 21
233.009
  0
LINE
  8
0
 10
781.6
 20
233.009
 11
779.391
 21
233.054
  0
LINE
  8
0
 10
779.391
 20
233.054
 11
777.188
 21
233.207
  0
LINE
  8
0
 10
777.188
 20
233.207
 11
774.995
 21
233.468
  0
LINE
  8
0
 10
774.995
 20
233.468
 11
772.817
 21
233.836
  0
LINE
  8
0
 10
772.817
 20
233.836
 11
770.66
 21
234.31
  0
LINE
  8
0
 10
770.66
 20
234.31
 11
768.528
 21
234.89
  0
LINE
  8
0
 10
768.528
 20
234.89
 11
766.428
 21
235.574
  0
LINE
  8
0
 10
766.428
 20
235.574
 11
764.364
 21
236.36
  0
LINE
  8
0
 10
764.364
 20
236.36
 11
762.341
 21
237.246
  0
LINE
  8
0
 10
762.341
 20
237.246
 11
760.364
 21
238.23
  0
LINE
  8
0
 10
760.364
 20
238.23
 11
758.437
 21
239.311
  0
LINE
  8
0
 10
758.437
 20
239.311
 11
756.566
 21
240.484
  0
LINE
  8
0
 10
756.566
 20
240.484
 11
754.755
 21
241.748
  0
LINE
  8
0
 10
754.755
 20
241.748
 11
753.008
 21
243.099
  0
LINE
  8
0
 10
753.008
 20
243.099
 11
751.329
 21
244.535
  0
LINE
  8
0
 10
751.329
 20
244.535
 11
749.723
 21
246.051
  0
LINE
  8
0
 10
749.723
 20
246.051
 11
748.193
 21
247.644
  0
LINE
  8
0
 10
748.193
 20
247.644
 11
746.743
 21
249.31
  0
LINE
  8
0
 10
746.743
 20
249.31
 11
745.376
 21
251.045
  0
LINE
  8
0
 10
745.376
 20
251.045
 11
744.096
 21
252.845
  0
LINE
  8
0
 10
744.096
 20
252.845
 11
742.907
 21
254.706
  0
LINE
  8
0
 10
742.907
 20
254.706
 11
741.81
 21
256.623
  0
LINE
  8
0
 10
741.81
 20
256.623
 11
740.808
 21
258.592
  0
LINE
  8
0
 10
740.808
 20
258.592
 11
739.904
 21
260.607
  0
LINE
  8
0
 10
739.904
 20
260.607
 11
739.1
 21
262.664
  0
LINE
  8
0
 10
739.1
 20
262.664
 11
738.398
 21
264.758
  0
LINE
  8
0
 10
738.398
 20
264.758
 11
737.8
 21
266.885
  0
LINE
  8
0
 10
737.8
 20
266.885
 11
737.307
 21
269.037
  0
LINE
  8
0
 10
737.307
 20
269.037
 11
736.919
 21
271.212
  0
LINE
  8
0
 10
736.919
 20
271.212
 11
736.898
 21
271.379
  0
LINE
  8
0
 10
736.898
 20
271.379
 11
-982.007
 21
605.501
  0
LINE
  8
0
 10
-982.007
 20
605.501
 11
-982.961
 21
600.592
  0
LINE
  8
0
 10
-982.961
 20
600.592
 11
-988.557
 21
554.533
  0
LINE
  8
0
 10
-988.557
 20
554.533
 11
-989.618
 21
545.268
  0
LINE
  8
0
 10
-989.618
 20
545.268
 11
-990.223
 21
535.962
  0
LINE
  8
0
 10
-990.223
 20
535.962
 11
-990.37
 21
526.637
  0
LINE
  8
0
 10
-990.37
 20
526.637
 11
-990.06
 21
517.317
  0
LINE
  8
0
 10
-990.06
 20
517.317
 11
-989.293
 21
508.023
  0
LINE
  8
0
 10
-989.293
 20
508.023
 11
-988.071
 21
498.777
  0
LINE
  8
0
 10
-988.071
 20
498.777
 11
-986.396
 21
489.603
  0
LINE
  8
0
 10
-986.396
 20
489.603
 11
-984.274
 21
480.522
  0
LINE
  8
0
 10
-984.274
 20
480.522
 11
-981.708
 21
471.556
  0
LINE
  8
0
 10
-981.708
 20
471.556
 11
-978.706
 21
462.727
  0
LINE
  8
0
 10
-978.706
 20
462.727
 11
-975.273
 21
454.056
  0
LINE
  8
0
 10
-975.273
 20
454.056
 11
-971.42
 21
445.564
  0
LINE
  8
0
 10
-971.42
 20
445.564
 11
-967.155
 21
437.271
  0
LINE
  8
0
 10
-967.155
 20
437.271
 11
-962.487
 21
429.197
  0
LINE
  8
0
 10
-962.487
 20
429.197
 11
-957.43
 21
421.362
  0
LINE
  8
0
 10
-957.43
 20
421.362
 11
-951.993
 21
413.785
  0
LINE
  8
0
 10
-951.993
 20
413.785
 11
-946.192
 21
406.483
  0
LINE
  8
0
 10
-946.192
 20
406.483
 11
-940.039
 21
399.475
  0
LINE
  8
0
 10
-940.039
 20
399.475
 11
-933.55
 21
392.778
  0
LINE
  8
0
 10
-933.55
 20
392.778
 11
-926.74
 21
386.406
  0
LINE
  8
0
 10
-926.74
 20
386.406
 11
-919.626
 21
380.377
  0
LINE
  8
0
 10
-919.626
 20
380.377
 11
-912.224
 21
374.704
  0
LINE
  8
0
 10
-912.224
 20
374.704
 11
-904.553
 21
369.401
  0
LINE
  8
0
 10
-904.553
 20
369.401
 11
-896.631
 21
364.48
  0
LINE
  8
0
 10
-896.631
 20
364.48
 11
-888.477
 21
359.955
  0
LINE
  8
0
 10
-888.477
 20
359.955
 11
-880.111
 21
355.835
  0
LINE
  8
0
 10
-880.111
 20
355.835
 11
-871.553
 21
352.13
  0
LINE
  8
0
 10
-871.553
 20
352.13
 11
0
 21
0
  0
LINE
  8
0
 10
0
 20
0
 11
940
 21
0
  0
LINE
  8
0
 10
940
 20
0
 11
949.323
 21
0.228851
  0
ENDSEC
  0
SECTION
  2
OBJECTS
  0
DICTIONARY
  0
ENDSEC
  0
EOF
