  0
SECTION
  2
BLOCKS
  0
ENDSEC
  0
SECTION
  2
ENTITIES
  0
LINE
  8
0
 10
70.5993
 20
363.202
 11
-830.04
 21
538.269
  0
LINE
  8
0
 10
-830.04
 20
538.269
 11
-985.999
 21
568.584
  0
LINE
  8
0
 10
-985.999
 20
568.584
 11
-987.043
 21
563.735
  0
LINE
  8
0
 10
-987.043
 20
563.735
 11
-988.557
 21
554.533
  0
LINE
  8
0
 10
-988.557
 20
554.533
 11
-989.618
 21
545.268
  0
LINE
  8
0
 10
-989.618
 20
545.268
 11
-990.223
 21
535.962
  0
LINE
  8
0
 10
-990.223
 20
535.962
 11
-990.37
 21
526.637
  0
LINE
  8
0
 10
-990.37
 20
526.637
 11
-990.06
 21
517.317
  0
LINE
  8
0
 10
-990.06
 20
517.317
 11
-989.293
 21
508.023
  0
LINE
  8
0
 10
-989.293
 20
508.023
 11
-988.071
 21
498.777
  0
LINE
  8
0
 10
-988.071
 20
498.777
 11
-986.396
 21
489.603
  0
LINE
  8
0
 10
-986.396
 20
489.603
 11
-984.274
 21
480.522
  0
LINE
  8
0
 10
-984.274
 20
480.522
 11
-981.708
 21
471.556
  0
LINE
  8
0
 10
-981.708
 20
471.556
 11
-978.706
 21
462.727
  0
LINE
  8
0
 10
-978.706
 20
462.727
 11
-975.273
 21
454.056
  0
LINE
  8
0
 10
-975.273
 20
454.056
 11
-971.42
 21
445.564
  0
LINE
  8
0
 10
-971.42
 20
445.564
 11
-967.155
 21
437.271
  0
LINE
  8
0
 10
-967.155
 20
437.271
 11
-962.487
 21
429.197
  0
LINE
  8
0
 10
-962.487
 20
429.197
 11
-957.43
 21
421.362
  0
LINE
  8
0
 10
-957.43
 20
421.362
 11
-951.993
 21
413.785
  0
LINE
  8
0
 10
-951.993
 20
413.785
 11
-946.192
 21
406.483
  0
LINE
  8
0
 10
-946.192
 20
406.483
 11
-940.039
 21
399.475
  0
LINE
  8
0
 10
-940.039
 20
399.475
 11
-933.55
 21
392.778
  0
LINE
  8
0
 10
-933.55
 20
392.778
 11
-926.74
 21
386.406
  0
LINE
  8
0
 10
-926.74
 20
386.406
 11
-919.626
 21
380.377
  0
LINE
  8
0
 10
-919.626
 20
380.377
 11
-912.224
 21
374.704
  0
LINE
  8
0
 10
-912.224
 20
374.704
 11
-904.553
 21
369.401
  0
LINE
  8
0
 10
-904.553
 20
369.401
 11
-896.631
 21
364.48
  0
LINE
  8
0
 10
-896.631
 20
364.48
 11
-888.477
 21
359.955
  0
LINE
  8
0
 10
-888.477
 20
359.955
 11
-880.111
 21
355.835
  0
LINE
  8
0
 10
-880.111
 20
355.835
 11
-871.553
 21
352.13
  0
LINE
  8
0
 10
-871.553
 20
352.13
 11
0
 21
0
  0
LINE
  8
0
 10
0
 20
0
 11
70.5993
 21
363.202
  0
ENDSEC
  0
SECTION
  2
OBJECTS
  0
DICTIONARY
  0
ENDSEC
  0
EOF
