  0
SECTION
  2
BLOCKS
  0
ENDSEC
  0
SECTION
  2
ENTITIES
  0
LINE
  8
0
 10
834.5
 20
140
 11
0
 21
140
  0
LINE
  8
0
 10
0
 20
140
 11
0
 21
0
  0
LINE
  8
0
 10
0
 20
0
 11
432
 21
0
  0
LINE
  8
0
 10
432
 20
0
 11
432
 21
-114
  0
LINE
  8
0
 10
432
 20
-114
 11
834.5
 21
-114
  0
LINE
  8
0
 10
834.5
 20
-114
 11
834.5
 21
140
  0
LINE
  8
0
 10
99.8037
 20
71.0048
 11
99.6079
 21
71.0193
  0
LINE
  8
0
 10
99.6079
 20
71.0193
 11
99.4131
 21
71.0433
  0
LINE
  8
0
 10
99.4131
 20
71.0433
 11
99.2196
 21
71.0769
  0
LINE
  8
0
 10
99.2196
 20
71.0769
 11
99.0281
 21
71.1199
  0
LINE
  8
0
 10
99.0281
 20
71.1199
 11
98.8389
 21
71.1722
  0
LINE
  8
0
 10
98.8389
 20
71.1722
 11
98.6524
 21
71.2338
  0
LINE
  8
0
 10
98.6524
 20
71.2338
 11
98.4693
 21
71.3045
  0
LINE
  8
0
 10
98.4693
 20
71.3045
 11
98.2898
 21
71.384
  0
LINE
  8
0
 10
98.2898
 20
71.384
 11
98.1144
 21
71.4723
  0
LINE
  8
0
 10
98.1144
 20
71.4723
 11
97.9436
 21
71.5691
  0
LINE
  8
0
 10
97.9436
 20
71.5691
 11
97.7777
 21
71.6741
  0
LINE
  8
0
 10
97.7777
 20
71.6741
 11
97.6172
 21
71.7872
  0
LINE
  8
0
 10
97.6172
 20
71.7872
 11
97.4624
 21
71.908
  0
LINE
  8
0
 10
97.4624
 20
71.908
 11
97.3138
 21
72.0362
  0
LINE
  8
0
 10
97.3138
 20
72.0362
 11
97.1716
 21
72.1716
  0
LINE
  8
0
 10
97.1716
 20
72.1716
 11
97.0362
 21
72.3138
  0
LINE
  8
0
 10
97.0362
 20
72.3138
 11
96.908
 21
72.4624
  0
LINE
  8
0
 10
96.908
 20
72.4624
 11
96.7872
 21
72.6172
  0
LINE
  8
0
 10
96.7872
 20
72.6172
 11
96.6741
 21
72.7777
  0
LINE
  8
0
 10
96.6741
 20
72.7777
 11
96.5691
 21
72.9436
  0
LINE
  8
0
 10
96.5691
 20
72.9436
 11
96.4723
 21
73.1144
  0
LINE
  8
0
 10
96.4723
 20
73.1144
 11
96.384
 21
73.2898
  0
LINE
  8
0
 10
96.384
 20
73.2898
 11
96.3045
 21
73.4693
  0
LINE
  8
0
 10
96.3045
 20
73.4693
 11
96.2338
 21
73.6524
  0
LINE
  8
0
 10
96.2338
 20
73.6524
 11
96.1722
 21
73.8389
  0
LINE
  8
0
 10
96.1722
 20
73.8389
 11
96.1199
 21
74.0281
  0
LINE
  8
0
 10
96.1199
 20
74.0281
 11
96.0769
 21
74.2196
  0
LINE
  8
0
 10
96.0769
 20
74.2196
 11
96.0433
 21
74.4131
  0
LINE
  8
0
 10
96.0433
 20
74.4131
 11
96.0193
 21
74.6079
  0
LINE
  8
0
 10
96.0193
 20
74.6079
 11
96.0048
 21
74.8037
  0
LINE
  8
0
 10
96.0048
 20
74.8037
 11
96
 21
75
  0
LINE
  8
0
 10
96
 20
75
 11
96
 21
118.5
  0
LINE
  8
0
 10
96
 20
118.5
 11
96.0048
 21
118.696
  0
LINE
  8
0
 10
96.0048
 20
118.696
 11
96.0193
 21
118.892
  0
LINE
  8
0
 10
96.0193
 20
118.892
 11
96.0433
 21
119.087
  0
LINE
  8
0
 10
96.0433
 20
119.087
 11
96.0769
 21
119.28
  0
LINE
  8
0
 10
96.0769
 20
119.28
 11
96.1199
 21
119.472
  0
LINE
  8
0
 10
96.1199
 20
119.472
 11
96.1722
 21
119.661
  0
LINE
  8
0
 10
96.1722
 20
119.661
 11
96.2338
 21
119.848
  0
LINE
  8
0
 10
96.2338
 20
119.848
 11
96.3045
 21
120.031
  0
LINE
  8
0
 10
96.3045
 20
120.031
 11
96.384
 21
120.21
  0
LINE
  8
0
 10
96.384
 20
120.21
 11
96.4723
 21
120.386
  0
LINE
  8
0
 10
96.4723
 20
120.386
 11
96.5691
 21
120.556
  0
LINE
  8
0
 10
96.5691
 20
120.556
 11
96.6741
 21
120.722
  0
LINE
  8
0
 10
96.6741
 20
120.722
 11
96.7872
 21
120.883
  0
LINE
  8
0
 10
96.7872
 20
120.883
 11
96.908
 21
121.038
  0
LINE
  8
0
 10
96.908
 20
121.038
 11
97.0362
 21
121.186
  0
LINE
  8
0
 10
97.0362
 20
121.186
 11
97.1716
 21
121.328
  0
LINE
  8
0
 10
97.1716
 20
121.328
 11
97.3138
 21
121.464
  0
LINE
  8
0
 10
97.3138
 20
121.464
 11
97.4624
 21
121.592
  0
LINE
  8
0
 10
97.4624
 20
121.592
 11
97.6172
 21
121.713
  0
LINE
  8
0
 10
97.6172
 20
121.713
 11
97.7777
 21
121.826
  0
LINE
  8
0
 10
97.7777
 20
121.826
 11
97.9436
 21
121.931
  0
LINE
  8
0
 10
97.9436
 20
121.931
 11
98.1144
 21
122.028
  0
LINE
  8
0
 10
98.1144
 20
122.028
 11
98.2898
 21
122.116
  0
LINE
  8
0
 10
98.2898
 20
122.116
 11
98.4693
 21
122.196
  0
LINE
  8
0
 10
98.4693
 20
122.196
 11
98.6524
 21
122.266
  0
LINE
  8
0
 10
98.6524
 20
122.266
 11
98.8389
 21
122.328
  0
LINE
  8
0
 10
98.8389
 20
122.328
 11
99.0281
 21
122.38
  0
LINE
  8
0
 10
99.0281
 20
122.38
 11
99.2196
 21
122.423
  0
LINE
  8
0
 10
99.2196
 20
122.423
 11
99.4131
 21
122.457
  0
LINE
  8
0
 10
99.4131
 20
122.457
 11
99.6079
 21
122.481
  0
LINE
  8
0
 10
99.6079
 20
122.481
 11
99.8037
 21
122.495
  0
LINE
  8
0
 10
99.8037
 20
122.495
 11
100
 21
122.5
  0
LINE
  8
0
 10
100
 20
122.5
 11
100.196
 21
122.495
  0
LINE
  8
0
 10
100.196
 20
122.495
 11
100.392
 21
122.481
  0
LINE
  8
0
 10
100.392
 20
122.481
 11
100.587
 21
122.457
  0
LINE
  8
0
 10
100.587
 20
122.457
 11
100.78
 21
122.423
  0
LINE
  8
0
 10
100.78
 20
122.423
 11
100.972
 21
122.38
  0
LINE
  8
0
 10
100.972
 20
122.38
 11
101.161
 21
122.328
  0
LINE
  8
0
 10
101.161
 20
122.328
 11
101.348
 21
122.266
  0
LINE
  8
0
 10
101.348
 20
122.266
 11
101.531
 21
122.196
  0
LINE
  8
0
 10
101.531
 20
122.196
 11
101.71
 21
122.116
  0
LINE
  8
0
 10
101.71
 20
122.116
 11
101.886
 21
122.028
  0
LINE
  8
0
 10
101.886
 20
122.028
 11
102.056
 21
121.931
  0
LINE
  8
0
 10
102.056
 20
121.931
 11
102.222
 21
121.826
  0
LINE
  8
0
 10
102.222
 20
121.826
 11
102.383
 21
121.713
  0
LINE
  8
0
 10
102.383
 20
121.713
 11
102.538
 21
121.592
  0
LINE
  8
0
 10
102.538
 20
121.592
 11
102.686
 21
121.464
  0
LINE
  8
0
 10
102.686
 20
121.464
 11
102.828
 21
121.328
  0
LINE
  8
0
 10
102.828
 20
121.328
 11
102.964
 21
121.186
  0
LINE
  8
0
 10
102.964
 20
121.186
 11
103.092
 21
121.038
  0
LINE
  8
0
 10
103.092
 20
121.038
 11
103.213
 21
120.883
  0
LINE
  8
0
 10
103.213
 20
120.883
 11
103.326
 21
120.722
  0
LINE
  8
0
 10
103.326
 20
120.722
 11
103.431
 21
120.556
  0
LINE
  8
0
 10
103.431
 20
120.556
 11
103.528
 21
120.386
  0
LINE
  8
0
 10
103.528
 20
120.386
 11
103.616
 21
120.21
  0
LINE
  8
0
 10
103.616
 20
120.21
 11
103.696
 21
120.031
  0
LINE
  8
0
 10
103.696
 20
120.031
 11
103.766
 21
119.848
  0
LINE
  8
0
 10
103.766
 20
119.848
 11
103.828
 21
119.661
  0
LINE
  8
0
 10
103.828
 20
119.661
 11
103.88
 21
119.472
  0
LINE
  8
0
 10
103.88
 20
119.472
 11
103.923
 21
119.28
  0
LINE
  8
0
 10
103.923
 20
119.28
 11
103.957
 21
119.087
  0
LINE
  8
0
 10
103.957
 20
119.087
 11
103.981
 21
118.892
  0
LINE
  8
0
 10
103.981
 20
118.892
 11
103.995
 21
118.696
  0
LINE
  8
0
 10
103.995
 20
118.696
 11
104
 21
118.5
  0
LINE
  8
0
 10
104
 20
118.5
 11
104
 21
75
  0
LINE
  8
0
 10
104
 20
75
 11
103.995
 21
74.8037
  0
LINE
  8
0
 10
103.995
 20
74.8037
 11
103.981
 21
74.6079
  0
LINE
  8
0
 10
103.981
 20
74.6079
 11
103.957
 21
74.4131
  0
LINE
  8
0
 10
103.957
 20
74.4131
 11
103.923
 21
74.2196
  0
LINE
  8
0
 10
103.923
 20
74.2196
 11
103.88
 21
74.0281
  0
LINE
  8
0
 10
103.88
 20
74.0281
 11
103.828
 21
73.8389
  0
LINE
  8
0
 10
103.828
 20
73.8389
 11
103.766
 21
73.6524
  0
LINE
  8
0
 10
103.766
 20
73.6524
 11
103.696
 21
73.4693
  0
LINE
  8
0
 10
103.696
 20
73.4693
 11
103.616
 21
73.2898
  0
LINE
  8
0
 10
103.616
 20
73.2898
 11
103.528
 21
73.1144
  0
LINE
  8
0
 10
103.528
 20
73.1144
 11
103.431
 21
72.9436
  0
LINE
  8
0
 10
103.431
 20
72.9436
 11
103.326
 21
72.7777
  0
LINE
  8
0
 10
103.326
 20
72.7777
 11
103.213
 21
72.6172
  0
LINE
  8
0
 10
103.213
 20
72.6172
 11
103.092
 21
72.4624
  0
LINE
  8
0
 10
103.092
 20
72.4624
 11
102.964
 21
72.3138
  0
LINE
  8
0
 10
102.964
 20
72.3138
 11
102.828
 21
72.1716
  0
LINE
  8
0
 10
102.828
 20
72.1716
 11
102.686
 21
72.0362
  0
LINE
  8
0
 10
102.686
 20
72.0362
 11
102.538
 21
71.908
  0
LINE
  8
0
 10
102.538
 20
71.908
 11
102.383
 21
71.7872
  0
LINE
  8
0
 10
102.383
 20
71.7872
 11
102.222
 21
71.6741
  0
LINE
  8
0
 10
102.222
 20
71.6741
 11
102.056
 21
71.5691
  0
LINE
  8
0
 10
102.056
 20
71.5691
 11
101.886
 21
71.4723
  0
LINE
  8
0
 10
101.886
 20
71.4723
 11
101.71
 21
71.384
  0
LINE
  8
0
 10
101.71
 20
71.384
 11
101.531
 21
71.3045
  0
LINE
  8
0
 10
101.531
 20
71.3045
 11
101.348
 21
71.2338
  0
LINE
  8
0
 10
101.348
 20
71.2338
 11
101.161
 21
71.1722
  0
LINE
  8
0
 10
101.161
 20
71.1722
 11
100.972
 21
71.1199
  0
LINE
  8
0
 10
100.972
 20
71.1199
 11
100.78
 21
71.0769
  0
LINE
  8
0
 10
100.78
 20
71.0769
 11
100.587
 21
71.0433
  0
LINE
  8
0
 10
100.587
 20
71.0433
 11
100.392
 21
71.0193
  0
LINE
  8
0
 10
100.392
 20
71.0193
 11
100.196
 21
71.0048
  0
LINE
  8
0
 10
100.196
 20
71.0048
 11
100
 21
71
  0
LINE
  8
0
 10
100
 20
71
 11
99.8037
 21
71.0048
  0
LINE
  8
0
 10
470.7
 20
-74.8
 11
470.69
 21
-74.7998
  0
LINE
  8
0
 10
470.69
 20
-74.7998
 11
470.68
 21
-74.799
  0
LINE
  8
0
 10
470.68
 20
-74.799
 11
470.671
 21
-74.7978
  0
LINE
  8
0
 10
470.671
 20
-74.7978
 11
470.661
 21
-74.7962
  0
LINE
  8
0
 10
470.661
 20
-74.7962
 11
470.651
 21
-74.794
  0
LINE
  8
0
 10
470.651
 20
-74.794
 11
470.642
 21
-74.7914
  0
LINE
  8
0
 10
470.642
 20
-74.7914
 11
470.633
 21
-74.7883
  0
LINE
  8
0
 10
470.633
 20
-74.7883
 11
470.623
 21
-74.7848
  0
LINE
  8
0
 10
470.623
 20
-74.7848
 11
470.615
 21
-74.7808
  0
LINE
  8
0
 10
470.615
 20
-74.7808
 11
470.606
 21
-74.7764
  0
LINE
  8
0
 10
470.606
 20
-74.7764
 11
470.597
 21
-74.7715
  0
LINE
  8
0
 10
470.597
 20
-74.7715
 11
470.589
 21
-74.7663
  0
LINE
  8
0
 10
470.589
 20
-74.7663
 11
470.581
 21
-74.7606
  0
LINE
  8
0
 10
470.581
 20
-74.7606
 11
470.573
 21
-74.7546
  0
LINE
  8
0
 10
470.573
 20
-74.7546
 11
470.566
 21
-74.7482
  0
LINE
  8
0
 10
470.566
 20
-74.7482
 11
470.559
 21
-74.7414
  0
LINE
  8
0
 10
470.559
 20
-74.7414
 11
470.552
 21
-74.7343
  0
LINE
  8
0
 10
470.552
 20
-74.7343
 11
470.545
 21
-74.7269
  0
LINE
  8
0
 10
470.545
 20
-74.7269
 11
470.539
 21
-74.7191
  0
LINE
  8
0
 10
470.539
 20
-74.7191
 11
470.534
 21
-74.7111
  0
LINE
  8
0
 10
470.534
 20
-74.7111
 11
470.528
 21
-74.7028
  0
LINE
  8
0
 10
470.528
 20
-74.7028
 11
470.524
 21
-74.6943
  0
LINE
  8
0
 10
470.524
 20
-74.6943
 11
470.519
 21
-74.6855
  0
LINE
  8
0
 10
470.519
 20
-74.6855
 11
470.515
 21
-74.6765
  0
LINE
  8
0
 10
470.515
 20
-74.6765
 11
470.512
 21
-74.6674
  0
LINE
  8
0
 10
470.512
 20
-74.6674
 11
470.509
 21
-74.6581
  0
LINE
  8
0
 10
470.509
 20
-74.6581
 11
470.506
 21
-74.6486
  0
LINE
  8
0
 10
470.506
 20
-74.6486
 11
470.504
 21
-74.639
  0
LINE
  8
0
 10
470.504
 20
-74.639
 11
470.502
 21
-74.6293
  0
LINE
  8
0
 10
470.502
 20
-74.6293
 11
470.501
 21
-74.6196
  0
LINE
  8
0
 10
470.501
 20
-74.6196
 11
470.5
 21
-74.6098
  0
LINE
  8
0
 10
470.5
 20
-74.6098
 11
470.5
 21
-74.6
  0
LINE
  8
0
 10
470.5
 20
-74.6
 11
470.5
 21
92
  0
LINE
  8
0
 10
470.5
 20
92
 11
470.5
 21
92.0098
  0
LINE
  8
0
 10
470.5
 20
92.0098
 11
470.501
 21
92.0196
  0
LINE
  8
0
 10
470.501
 20
92.0196
 11
470.502
 21
92.0293
  0
LINE
  8
0
 10
470.502
 20
92.0293
 11
470.504
 21
92.039
  0
LINE
  8
0
 10
470.504
 20
92.039
 11
470.506
 21
92.0486
  0
LINE
  8
0
 10
470.506
 20
92.0486
 11
470.509
 21
92.0581
  0
LINE
  8
0
 10
470.509
 20
92.0581
 11
470.512
 21
92.0674
  0
LINE
  8
0
 10
470.512
 20
92.0674
 11
470.515
 21
92.0765
  0
LINE
  8
0
 10
470.515
 20
92.0765
 11
470.519
 21
92.0855
  0
LINE
  8
0
 10
470.519
 20
92.0855
 11
470.524
 21
92.0943
  0
LINE
  8
0
 10
470.524
 20
92.0943
 11
470.528
 21
92.1028
  0
LINE
  8
0
 10
470.528
 20
92.1028
 11
470.534
 21
92.1111
  0
LINE
  8
0
 10
470.534
 20
92.1111
 11
470.539
 21
92.1191
  0
LINE
  8
0
 10
470.539
 20
92.1191
 11
470.545
 21
92.1269
  0
LINE
  8
0
 10
470.545
 20
92.1269
 11
470.552
 21
92.1343
  0
LINE
  8
0
 10
470.552
 20
92.1343
 11
470.559
 21
92.1414
  0
LINE
  8
0
 10
470.559
 20
92.1414
 11
470.566
 21
92.1482
  0
LINE
  8
0
 10
470.566
 20
92.1482
 11
470.573
 21
92.1546
  0
LINE
  8
0
 10
470.573
 20
92.1546
 11
470.581
 21
92.1606
  0
LINE
  8
0
 10
470.581
 20
92.1606
 11
470.589
 21
92.1663
  0
LINE
  8
0
 10
470.589
 20
92.1663
 11
470.597
 21
92.1715
  0
LINE
  8
0
 10
470.597
 20
92.1715
 11
470.606
 21
92.1764
  0
LINE
  8
0
 10
470.606
 20
92.1764
 11
470.615
 21
92.1808
  0
LINE
  8
0
 10
470.615
 20
92.1808
 11
470.623
 21
92.1848
  0
LINE
  8
0
 10
470.623
 20
92.1848
 11
470.633
 21
92.1883
  0
LINE
  8
0
 10
470.633
 20
92.1883
 11
470.642
 21
92.1914
  0
LINE
  8
0
 10
470.642
 20
92.1914
 11
470.651
 21
92.194
  0
LINE
  8
0
 10
470.651
 20
92.194
 11
470.661
 21
92.1962
  0
LINE
  8
0
 10
470.661
 20
92.1962
 11
470.671
 21
92.1978
  0
LINE
  8
0
 10
470.671
 20
92.1978
 11
470.68
 21
92.199
  0
LINE
  8
0
 10
470.68
 20
92.199
 11
470.69
 21
92.1998
  0
LINE
  8
0
 10
470.69
 20
92.1998
 11
470.7
 21
92.2
  0
LINE
  8
0
 10
470.7
 20
92.2
 11
571.3
 21
92.2
  0
LINE
  8
0
 10
571.3
 20
92.2
 11
571.31
 21
92.1998
  0
LINE
  8
0
 10
571.31
 20
92.1998
 11
571.32
 21
92.199
  0
LINE
  8
0
 10
571.32
 20
92.199
 11
571.329
 21
92.1978
  0
LINE
  8
0
 10
571.329
 20
92.1978
 11
571.339
 21
92.1962
  0
LINE
  8
0
 10
571.339
 20
92.1962
 11
571.349
 21
92.194
  0
LINE
  8
0
 10
571.349
 20
92.194
 11
571.358
 21
92.1914
  0
LINE
  8
0
 10
571.358
 20
92.1914
 11
571.367
 21
92.1883
  0
LINE
  8
0
 10
571.367
 20
92.1883
 11
571.377
 21
92.1848
  0
LINE
  8
0
 10
571.377
 20
92.1848
 11
571.385
 21
92.1808
  0
LINE
  8
0
 10
571.385
 20
92.1808
 11
571.394
 21
92.1764
  0
LINE
  8
0
 10
571.394
 20
92.1764
 11
571.403
 21
92.1715
  0
LINE
  8
0
 10
571.403
 20
92.1715
 11
571.411
 21
92.1663
  0
LINE
  8
0
 10
571.411
 20
92.1663
 11
571.419
 21
92.1606
  0
LINE
  8
0
 10
571.419
 20
92.1606
 11
571.427
 21
92.1546
  0
LINE
  8
0
 10
571.427
 20
92.1546
 11
571.434
 21
92.1482
  0
LINE
  8
0
 10
571.434
 20
92.1482
 11
571.441
 21
92.1414
  0
LINE
  8
0
 10
571.441
 20
92.1414
 11
571.448
 21
92.1343
  0
LINE
  8
0
 10
571.448
 20
92.1343
 11
571.455
 21
92.1269
  0
LINE
  8
0
 10
571.455
 20
92.1269
 11
571.461
 21
92.1191
  0
LINE
  8
0
 10
571.461
 20
92.1191
 11
571.466
 21
92.1111
  0
LINE
  8
0
 10
571.466
 20
92.1111
 11
571.472
 21
92.1028
  0
LINE
  8
0
 10
571.472
 20
92.1028
 11
571.476
 21
92.0943
  0
LINE
  8
0
 10
571.476
 20
92.0943
 11
571.481
 21
92.0855
  0
LINE
  8
0
 10
571.481
 20
92.0855
 11
571.485
 21
92.0765
  0
LINE
  8
0
 10
571.485
 20
92.0765
 11
571.488
 21
92.0674
  0
LINE
  8
0
 10
571.488
 20
92.0674
 11
571.491
 21
92.0581
  0
LINE
  8
0
 10
571.491
 20
92.0581
 11
571.494
 21
92.0486
  0
LINE
  8
0
 10
571.494
 20
92.0486
 11
571.496
 21
92.039
  0
LINE
  8
0
 10
571.496
 20
92.039
 11
571.498
 21
92.0293
  0
LINE
  8
0
 10
571.498
 20
92.0293
 11
571.499
 21
92.0196
  0
LINE
  8
0
 10
571.499
 20
92.0196
 11
571.5
 21
92.0098
  0
LINE
  8
0
 10
571.5
 20
92.0098
 11
571.5
 21
92
  0
LINE
  8
0
 10
571.5
 20
92
 11
571.5
 21
32.5
  0
LINE
  8
0
 10
571.5
 20
32.5
 11
573.5
 21
32.5
  0
LINE
  8
0
 10
573.5
 20
32.5
 11
573.5
 21
-12.5
  0
LINE
  8
0
 10
573.5
 20
-12.5
 11
571.5
 21
-12.5
  0
LINE
  8
0
 10
571.5
 20
-12.5
 11
571.5
 21
-74.6
  0
LINE
  8
0
 10
571.5
 20
-74.6
 11
571.5
 21
-74.6098
  0
LINE
  8
0
 10
571.5
 20
-74.6098
 11
571.499
 21
-74.6196
  0
LINE
  8
0
 10
571.499
 20
-74.6196
 11
571.498
 21
-74.6293
  0
LINE
  8
0
 10
571.498
 20
-74.6293
 11
571.496
 21
-74.639
  0
LINE
  8
0
 10
571.496
 20
-74.639
 11
571.494
 21
-74.6486
  0
LINE
  8
0
 10
571.494
 20
-74.6486
 11
571.491
 21
-74.6581
  0
LINE
  8
0
 10
571.491
 20
-74.6581
 11
571.488
 21
-74.6674
  0
LINE
  8
0
 10
571.488
 20
-74.6674
 11
571.485
 21
-74.6765
  0
LINE
  8
0
 10
571.485
 20
-74.6765
 11
571.481
 21
-74.6855
  0
LINE
  8
0
 10
571.481
 20
-74.6855
 11
571.476
 21
-74.6943
  0
LINE
  8
0
 10
571.476
 20
-74.6943
 11
571.472
 21
-74.7028
  0
LINE
  8
0
 10
571.472
 20
-74.7028
 11
571.466
 21
-74.7111
  0
LINE
  8
0
 10
571.466
 20
-74.7111
 11
571.461
 21
-74.7191
  0
LINE
  8
0
 10
571.461
 20
-74.7191
 11
571.455
 21
-74.7269
  0
LINE
  8
0
 10
571.455
 20
-74.7269
 11
571.448
 21
-74.7343
  0
LINE
  8
0
 10
571.448
 20
-74.7343
 11
571.441
 21
-74.7414
  0
LINE
  8
0
 10
571.441
 20
-74.7414
 11
571.434
 21
-74.7482
  0
LINE
  8
0
 10
571.434
 20
-74.7482
 11
571.427
 21
-74.7546
  0
LINE
  8
0
 10
571.427
 20
-74.7546
 11
571.419
 21
-74.7606
  0
LINE
  8
0
 10
571.419
 20
-74.7606
 11
571.411
 21
-74.7663
  0
LINE
  8
0
 10
571.411
 20
-74.7663
 11
571.403
 21
-74.7715
  0
LINE
  8
0
 10
571.403
 20
-74.7715
 11
571.394
 21
-74.7764
  0
LINE
  8
0
 10
571.394
 20
-74.7764
 11
571.385
 21
-74.7808
  0
LINE
  8
0
 10
571.385
 20
-74.7808
 11
571.377
 21
-74.7848
  0
LINE
  8
0
 10
571.377
 20
-74.7848
 11
571.367
 21
-74.7883
  0
LINE
  8
0
 10
571.367
 20
-74.7883
 11
571.358
 21
-74.7914
  0
LINE
  8
0
 10
571.358
 20
-74.7914
 11
571.349
 21
-74.794
  0
LINE
  8
0
 10
571.349
 20
-74.794
 11
571.339
 21
-74.7962
  0
LINE
  8
0
 10
571.339
 20
-74.7962
 11
571.329
 21
-74.7978
  0
LINE
  8
0
 10
571.329
 20
-74.7978
 11
571.32
 21
-74.799
  0
LINE
  8
0
 10
571.32
 20
-74.799
 11
571.31
 21
-74.7998
  0
LINE
  8
0
 10
571.31
 20
-74.7998
 11
571.3
 21
-74.8
  0
LINE
  8
0
 10
571.3
 20
-74.8
 11
470.7
 21
-74.8
  0
LINE
  8
0
 10
-49
 20
112
 11
-278
 21
112
  0
LINE
  8
0
 10
-278
 20
112
 11
-278
 21
-244
  0
LINE
  8
0
 10
-278
 20
-244
 11
-49
 21
-244
  0
LINE
  8
0
 10
-49
 20
-244
 11
-49
 21
112
  0
LINE
  8
0
 10
421
 20
-15
 11
-36
 21
-15
  0
LINE
  8
0
 10
-36
 20
-15
 11
-36
 21
-244
  0
LINE
  8
0
 10
-36
 20
-244
 11
421
 21
-244
  0
LINE
  8
0
 10
421
 20
-244
 11
421
 21
-15
  0
ENDSEC
  0
SECTION
  2
OBJECTS
  0
DICTIONARY
  0
ENDSEC
  0
EOF
