  0
SECTION
  2
BLOCKS
  0
ENDSEC
  0
SECTION
  2
ENTITIES
  0
LINE
  8
0
 10
834.5
 20
140
 11
0
 21
140
  0
LINE
  8
0
 10
0
 20
140
 11
0
 21
0
  0
LINE
  8
0
 10
0
 20
0
 11
834.5
 21
0
  0
LINE
  8
0
 10
834.5
 20
0
 11
834.5
 21
140
  0
LINE
  8
0
 10
99.8037
 20
71.0048
 11
99.6079
 21
71.0193
  0
LINE
  8
0
 10
99.6079
 20
71.0193
 11
99.4131
 21
71.0433
  0
LINE
  8
0
 10
99.4131
 20
71.0433
 11
99.2196
 21
71.0769
  0
LINE
  8
0
 10
99.2196
 20
71.0769
 11
99.0281
 21
71.1199
  0
LINE
  8
0
 10
99.0281
 20
71.1199
 11
98.8389
 21
71.1722
  0
LINE
  8
0
 10
98.8389
 20
71.1722
 11
98.6524
 21
71.2338
  0
LINE
  8
0
 10
98.6524
 20
71.2338
 11
98.4693
 21
71.3045
  0
LINE
  8
0
 10
98.4693
 20
71.3045
 11
98.2898
 21
71.384
  0
LINE
  8
0
 10
98.2898
 20
71.384
 11
98.1144
 21
71.4723
  0
LINE
  8
0
 10
98.1144
 20
71.4723
 11
97.9436
 21
71.5691
  0
LINE
  8
0
 10
97.9436
 20
71.5691
 11
97.7777
 21
71.6741
  0
LINE
  8
0
 10
97.7777
 20
71.6741
 11
97.6172
 21
71.7872
  0
LINE
  8
0
 10
97.6172
 20
71.7872
 11
97.4624
 21
71.908
  0
LINE
  8
0
 10
97.4624
 20
71.908
 11
97.3138
 21
72.0362
  0
LINE
  8
0
 10
97.3138
 20
72.0362
 11
97.1716
 21
72.1716
  0
LINE
  8
0
 10
97.1716
 20
72.1716
 11
97.0362
 21
72.3138
  0
LINE
  8
0
 10
97.0362
 20
72.3138
 11
96.908
 21
72.4624
  0
LINE
  8
0
 10
96.908
 20
72.4624
 11
96.7872
 21
72.6172
  0
LINE
  8
0
 10
96.7872
 20
72.6172
 11
96.6741
 21
72.7777
  0
LINE
  8
0
 10
96.6741
 20
72.7777
 11
96.5691
 21
72.9436
  0
LINE
  8
0
 10
96.5691
 20
72.9436
 11
96.4723
 21
73.1144
  0
LINE
  8
0
 10
96.4723
 20
73.1144
 11
96.384
 21
73.2898
  0
LINE
  8
0
 10
96.384
 20
73.2898
 11
96.3045
 21
73.4693
  0
LINE
  8
0
 10
96.3045
 20
73.4693
 11
96.2338
 21
73.6524
  0
LINE
  8
0
 10
96.2338
 20
73.6524
 11
96.1722
 21
73.8389
  0
LINE
  8
0
 10
96.1722
 20
73.8389
 11
96.1199
 21
74.0281
  0
LINE
  8
0
 10
96.1199
 20
74.0281
 11
96.0769
 21
74.2196
  0
LINE
  8
0
 10
96.0769
 20
74.2196
 11
96.0433
 21
74.4131
  0
LINE
  8
0
 10
96.0433
 20
74.4131
 11
96.0193
 21
74.6079
  0
LINE
  8
0
 10
96.0193
 20
74.6079
 11
96.0048
 21
74.8037
  0
LINE
  8
0
 10
96.0048
 20
74.8037
 11
96
 21
75
  0
LINE
  8
0
 10
96
 20
75
 11
96
 21
118.5
  0
LINE
  8
0
 10
96
 20
118.5
 11
96.0048
 21
118.696
  0
LINE
  8
0
 10
96.0048
 20
118.696
 11
96.0193
 21
118.892
  0
LINE
  8
0
 10
96.0193
 20
118.892
 11
96.0433
 21
119.087
  0
LINE
  8
0
 10
96.0433
 20
119.087
 11
96.0769
 21
119.28
  0
LINE
  8
0
 10
96.0769
 20
119.28
 11
96.1199
 21
119.472
  0
LINE
  8
0
 10
96.1199
 20
119.472
 11
96.1722
 21
119.661
  0
LINE
  8
0
 10
96.1722
 20
119.661
 11
96.2338
 21
119.848
  0
LINE
  8
0
 10
96.2338
 20
119.848
 11
96.3045
 21
120.031
  0
LINE
  8
0
 10
96.3045
 20
120.031
 11
96.384
 21
120.21
  0
LINE
  8
0
 10
96.384
 20
120.21
 11
96.4723
 21
120.386
  0
LINE
  8
0
 10
96.4723
 20
120.386
 11
96.5691
 21
120.556
  0
LINE
  8
0
 10
96.5691
 20
120.556
 11
96.6741
 21
120.722
  0
LINE
  8
0
 10
96.6741
 20
120.722
 11
96.7872
 21
120.883
  0
LINE
  8
0
 10
96.7872
 20
120.883
 11
96.908
 21
121.038
  0
LINE
  8
0
 10
96.908
 20
121.038
 11
97.0362
 21
121.186
  0
LINE
  8
0
 10
97.0362
 20
121.186
 11
97.1716
 21
121.328
  0
LINE
  8
0
 10
97.1716
 20
121.328
 11
97.3138
 21
121.464
  0
LINE
  8
0
 10
97.3138
 20
121.464
 11
97.4624
 21
121.592
  0
LINE
  8
0
 10
97.4624
 20
121.592
 11
97.6172
 21
121.713
  0
LINE
  8
0
 10
97.6172
 20
121.713
 11
97.7777
 21
121.826
  0
LINE
  8
0
 10
97.7777
 20
121.826
 11
97.9436
 21
121.931
  0
LINE
  8
0
 10
97.9436
 20
121.931
 11
98.1144
 21
122.028
  0
LINE
  8
0
 10
98.1144
 20
122.028
 11
98.2898
 21
122.116
  0
LINE
  8
0
 10
98.2898
 20
122.116
 11
98.4693
 21
122.196
  0
LINE
  8
0
 10
98.4693
 20
122.196
 11
98.6524
 21
122.266
  0
LINE
  8
0
 10
98.6524
 20
122.266
 11
98.8389
 21
122.328
  0
LINE
  8
0
 10
98.8389
 20
122.328
 11
99.0281
 21
122.38
  0
LINE
  8
0
 10
99.0281
 20
122.38
 11
99.2196
 21
122.423
  0
LINE
  8
0
 10
99.2196
 20
122.423
 11
99.4131
 21
122.457
  0
LINE
  8
0
 10
99.4131
 20
122.457
 11
99.6079
 21
122.481
  0
LINE
  8
0
 10
99.6079
 20
122.481
 11
99.8037
 21
122.495
  0
LINE
  8
0
 10
99.8037
 20
122.495
 11
100
 21
122.5
  0
LINE
  8
0
 10
100
 20
122.5
 11
100.196
 21
122.495
  0
LINE
  8
0
 10
100.196
 20
122.495
 11
100.392
 21
122.481
  0
LINE
  8
0
 10
100.392
 20
122.481
 11
100.587
 21
122.457
  0
LINE
  8
0
 10
100.587
 20
122.457
 11
100.78
 21
122.423
  0
LINE
  8
0
 10
100.78
 20
122.423
 11
100.972
 21
122.38
  0
LINE
  8
0
 10
100.972
 20
122.38
 11
101.161
 21
122.328
  0
LINE
  8
0
 10
101.161
 20
122.328
 11
101.348
 21
122.266
  0
LINE
  8
0
 10
101.348
 20
122.266
 11
101.531
 21
122.196
  0
LINE
  8
0
 10
101.531
 20
122.196
 11
101.71
 21
122.116
  0
LINE
  8
0
 10
101.71
 20
122.116
 11
101.886
 21
122.028
  0
LINE
  8
0
 10
101.886
 20
122.028
 11
102.056
 21
121.931
  0
LINE
  8
0
 10
102.056
 20
121.931
 11
102.222
 21
121.826
  0
LINE
  8
0
 10
102.222
 20
121.826
 11
102.383
 21
121.713
  0
LINE
  8
0
 10
102.383
 20
121.713
 11
102.538
 21
121.592
  0
LINE
  8
0
 10
102.538
 20
121.592
 11
102.686
 21
121.464
  0
LINE
  8
0
 10
102.686
 20
121.464
 11
102.828
 21
121.328
  0
LINE
  8
0
 10
102.828
 20
121.328
 11
102.964
 21
121.186
  0
LINE
  8
0
 10
102.964
 20
121.186
 11
103.092
 21
121.038
  0
LINE
  8
0
 10
103.092
 20
121.038
 11
103.213
 21
120.883
  0
LINE
  8
0
 10
103.213
 20
120.883
 11
103.326
 21
120.722
  0
LINE
  8
0
 10
103.326
 20
120.722
 11
103.431
 21
120.556
  0
LINE
  8
0
 10
103.431
 20
120.556
 11
103.528
 21
120.386
  0
LINE
  8
0
 10
103.528
 20
120.386
 11
103.616
 21
120.21
  0
LINE
  8
0
 10
103.616
 20
120.21
 11
103.696
 21
120.031
  0
LINE
  8
0
 10
103.696
 20
120.031
 11
103.766
 21
119.848
  0
LINE
  8
0
 10
103.766
 20
119.848
 11
103.828
 21
119.661
  0
LINE
  8
0
 10
103.828
 20
119.661
 11
103.88
 21
119.472
  0
LINE
  8
0
 10
103.88
 20
119.472
 11
103.923
 21
119.28
  0
LINE
  8
0
 10
103.923
 20
119.28
 11
103.957
 21
119.087
  0
LINE
  8
0
 10
103.957
 20
119.087
 11
103.981
 21
118.892
  0
LINE
  8
0
 10
103.981
 20
118.892
 11
103.995
 21
118.696
  0
LINE
  8
0
 10
103.995
 20
118.696
 11
104
 21
118.5
  0
LINE
  8
0
 10
104
 20
118.5
 11
104
 21
75
  0
LINE
  8
0
 10
104
 20
75
 11
103.995
 21
74.8037
  0
LINE
  8
0
 10
103.995
 20
74.8037
 11
103.981
 21
74.6079
  0
LINE
  8
0
 10
103.981
 20
74.6079
 11
103.957
 21
74.4131
  0
LINE
  8
0
 10
103.957
 20
74.4131
 11
103.923
 21
74.2196
  0
LINE
  8
0
 10
103.923
 20
74.2196
 11
103.88
 21
74.0281
  0
LINE
  8
0
 10
103.88
 20
74.0281
 11
103.828
 21
73.8389
  0
LINE
  8
0
 10
103.828
 20
73.8389
 11
103.766
 21
73.6524
  0
LINE
  8
0
 10
103.766
 20
73.6524
 11
103.696
 21
73.4693
  0
LINE
  8
0
 10
103.696
 20
73.4693
 11
103.616
 21
73.2898
  0
LINE
  8
0
 10
103.616
 20
73.2898
 11
103.528
 21
73.1144
  0
LINE
  8
0
 10
103.528
 20
73.1144
 11
103.431
 21
72.9436
  0
LINE
  8
0
 10
103.431
 20
72.9436
 11
103.326
 21
72.7777
  0
LINE
  8
0
 10
103.326
 20
72.7777
 11
103.213
 21
72.6172
  0
LINE
  8
0
 10
103.213
 20
72.6172
 11
103.092
 21
72.4624
  0
LINE
  8
0
 10
103.092
 20
72.4624
 11
102.964
 21
72.3138
  0
LINE
  8
0
 10
102.964
 20
72.3138
 11
102.828
 21
72.1716
  0
LINE
  8
0
 10
102.828
 20
72.1716
 11
102.686
 21
72.0362
  0
LINE
  8
0
 10
102.686
 20
72.0362
 11
102.538
 21
71.908
  0
LINE
  8
0
 10
102.538
 20
71.908
 11
102.383
 21
71.7872
  0
LINE
  8
0
 10
102.383
 20
71.7872
 11
102.222
 21
71.6741
  0
LINE
  8
0
 10
102.222
 20
71.6741
 11
102.056
 21
71.5691
  0
LINE
  8
0
 10
102.056
 20
71.5691
 11
101.886
 21
71.4723
  0
LINE
  8
0
 10
101.886
 20
71.4723
 11
101.71
 21
71.384
  0
LINE
  8
0
 10
101.71
 20
71.384
 11
101.531
 21
71.3045
  0
LINE
  8
0
 10
101.531
 20
71.3045
 11
101.348
 21
71.2338
  0
LINE
  8
0
 10
101.348
 20
71.2338
 11
101.161
 21
71.1722
  0
LINE
  8
0
 10
101.161
 20
71.1722
 11
100.972
 21
71.1199
  0
LINE
  8
0
 10
100.972
 20
71.1199
 11
100.78
 21
71.0769
  0
LINE
  8
0
 10
100.78
 20
71.0769
 11
100.587
 21
71.0433
  0
LINE
  8
0
 10
100.587
 20
71.0433
 11
100.392
 21
71.0193
  0
LINE
  8
0
 10
100.392
 20
71.0193
 11
100.196
 21
71.0048
  0
LINE
  8
0
 10
100.196
 20
71.0048
 11
100
 21
71
  0
LINE
  8
0
 10
100
 20
71
 11
99.8037
 21
71.0048
  0
LINE
  8
0
 10
383
 20
19.5
 11
382.99
 21
19.5002
  0
LINE
  8
0
 10
382.99
 20
19.5002
 11
382.98
 21
19.501
  0
LINE
  8
0
 10
382.98
 20
19.501
 11
382.971
 21
19.5022
  0
LINE
  8
0
 10
382.971
 20
19.5022
 11
382.961
 21
19.5038
  0
LINE
  8
0
 10
382.961
 20
19.5038
 11
382.951
 21
19.506
  0
LINE
  8
0
 10
382.951
 20
19.506
 11
382.942
 21
19.5086
  0
LINE
  8
0
 10
382.942
 20
19.5086
 11
382.933
 21
19.5117
  0
LINE
  8
0
 10
382.933
 20
19.5117
 11
382.923
 21
19.5152
  0
LINE
  8
0
 10
382.923
 20
19.5152
 11
382.914
 21
19.5192
  0
LINE
  8
0
 10
382.914
 20
19.5192
 11
382.906
 21
19.5236
  0
LINE
  8
0
 10
382.906
 20
19.5236
 11
382.897
 21
19.5284
  0
LINE
  8
0
 10
382.897
 20
19.5284
 11
382.889
 21
19.5337
  0
LINE
  8
0
 10
382.889
 20
19.5337
 11
382.881
 21
19.5394
  0
LINE
  8
0
 10
382.881
 20
19.5394
 11
382.873
 21
19.5454
  0
LINE
  8
0
 10
382.873
 20
19.5454
 11
382.866
 21
19.5518
  0
LINE
  8
0
 10
382.866
 20
19.5518
 11
382.859
 21
19.5586
  0
LINE
  8
0
 10
382.859
 20
19.5586
 11
382.852
 21
19.5657
  0
LINE
  8
0
 10
382.852
 20
19.5657
 11
382.845
 21
19.5731
  0
LINE
  8
0
 10
382.845
 20
19.5731
 11
382.839
 21
19.5809
  0
LINE
  8
0
 10
382.839
 20
19.5809
 11
382.834
 21
19.5889
  0
LINE
  8
0
 10
382.834
 20
19.5889
 11
382.828
 21
19.5972
  0
LINE
  8
0
 10
382.828
 20
19.5972
 11
382.824
 21
19.6057
  0
LINE
  8
0
 10
382.824
 20
19.6057
 11
382.819
 21
19.6145
  0
LINE
  8
0
 10
382.819
 20
19.6145
 11
382.815
 21
19.6235
  0
LINE
  8
0
 10
382.815
 20
19.6235
 11
382.812
 21
19.6326
  0
LINE
  8
0
 10
382.812
 20
19.6326
 11
382.809
 21
19.6419
  0
LINE
  8
0
 10
382.809
 20
19.6419
 11
382.806
 21
19.6514
  0
LINE
  8
0
 10
382.806
 20
19.6514
 11
382.804
 21
19.661
  0
LINE
  8
0
 10
382.804
 20
19.661
 11
382.802
 21
19.6707
  0
LINE
  8
0
 10
382.802
 20
19.6707
 11
382.801
 21
19.6804
  0
LINE
  8
0
 10
382.801
 20
19.6804
 11
382.8
 21
19.6902
  0
LINE
  8
0
 10
382.8
 20
19.6902
 11
382.8
 21
19.7
  0
LINE
  8
0
 10
382.8
 20
19.7
 11
382.8
 21
120.3
  0
LINE
  8
0
 10
382.8
 20
120.3
 11
382.8
 21
120.31
  0
LINE
  8
0
 10
382.8
 20
120.31
 11
382.801
 21
120.32
  0
LINE
  8
0
 10
382.801
 20
120.32
 11
382.802
 21
120.329
  0
LINE
  8
0
 10
382.802
 20
120.329
 11
382.804
 21
120.339
  0
LINE
  8
0
 10
382.804
 20
120.339
 11
382.806
 21
120.349
  0
LINE
  8
0
 10
382.806
 20
120.349
 11
382.809
 21
120.358
  0
LINE
  8
0
 10
382.809
 20
120.358
 11
382.812
 21
120.367
  0
LINE
  8
0
 10
382.812
 20
120.367
 11
382.815
 21
120.377
  0
LINE
  8
0
 10
382.815
 20
120.377
 11
382.819
 21
120.386
  0
LINE
  8
0
 10
382.819
 20
120.386
 11
382.824
 21
120.394
  0
LINE
  8
0
 10
382.824
 20
120.394
 11
382.828
 21
120.403
  0
LINE
  8
0
 10
382.828
 20
120.403
 11
382.834
 21
120.411
  0
LINE
  8
0
 10
382.834
 20
120.411
 11
382.839
 21
120.419
  0
LINE
  8
0
 10
382.839
 20
120.419
 11
382.845
 21
120.427
  0
LINE
  8
0
 10
382.845
 20
120.427
 11
382.852
 21
120.434
  0
LINE
  8
0
 10
382.852
 20
120.434
 11
382.859
 21
120.441
  0
LINE
  8
0
 10
382.859
 20
120.441
 11
382.866
 21
120.448
  0
LINE
  8
0
 10
382.866
 20
120.448
 11
382.873
 21
120.455
  0
LINE
  8
0
 10
382.873
 20
120.455
 11
382.881
 21
120.461
  0
LINE
  8
0
 10
382.881
 20
120.461
 11
382.889
 21
120.466
  0
LINE
  8
0
 10
382.889
 20
120.466
 11
382.897
 21
120.472
  0
LINE
  8
0
 10
382.897
 20
120.472
 11
382.906
 21
120.476
  0
LINE
  8
0
 10
382.906
 20
120.476
 11
382.914
 21
120.481
  0
LINE
  8
0
 10
382.914
 20
120.481
 11
382.923
 21
120.485
  0
LINE
  8
0
 10
382.923
 20
120.485
 11
382.933
 21
120.488
  0
LINE
  8
0
 10
382.933
 20
120.488
 11
382.942
 21
120.491
  0
LINE
  8
0
 10
382.942
 20
120.491
 11
382.951
 21
120.494
  0
LINE
  8
0
 10
382.951
 20
120.494
 11
382.961
 21
120.496
  0
LINE
  8
0
 10
382.961
 20
120.496
 11
382.971
 21
120.498
  0
LINE
  8
0
 10
382.971
 20
120.498
 11
382.98
 21
120.499
  0
LINE
  8
0
 10
382.98
 20
120.499
 11
382.99
 21
120.5
  0
LINE
  8
0
 10
382.99
 20
120.5
 11
383
 21
120.5
  0
LINE
  8
0
 10
383
 20
120.5
 11
442.5
 21
120.5
  0
LINE
  8
0
 10
442.5
 20
120.5
 11
442.5
 21
122.5
  0
LINE
  8
0
 10
442.5
 20
122.5
 11
487.5
 21
122.5
  0
LINE
  8
0
 10
487.5
 20
122.5
 11
487.5
 21
120.5
  0
LINE
  8
0
 10
487.5
 20
120.5
 11
549.6
 21
120.5
  0
LINE
  8
0
 10
549.6
 20
120.5
 11
549.61
 21
120.5
  0
LINE
  8
0
 10
549.61
 20
120.5
 11
549.62
 21
120.499
  0
LINE
  8
0
 10
549.62
 20
120.499
 11
549.629
 21
120.498
  0
LINE
  8
0
 10
549.629
 20
120.498
 11
549.639
 21
120.496
  0
LINE
  8
0
 10
549.639
 20
120.496
 11
549.649
 21
120.494
  0
LINE
  8
0
 10
549.649
 20
120.494
 11
549.658
 21
120.491
  0
LINE
  8
0
 10
549.658
 20
120.491
 11
549.667
 21
120.488
  0
LINE
  8
0
 10
549.667
 20
120.488
 11
549.677
 21
120.485
  0
LINE
  8
0
 10
549.677
 20
120.485
 11
549.685
 21
120.481
  0
LINE
  8
0
 10
549.685
 20
120.481
 11
549.694
 21
120.476
  0
LINE
  8
0
 10
549.694
 20
120.476
 11
549.703
 21
120.472
  0
LINE
  8
0
 10
549.703
 20
120.472
 11
549.711
 21
120.466
  0
LINE
  8
0
 10
549.711
 20
120.466
 11
549.719
 21
120.461
  0
LINE
  8
0
 10
549.719
 20
120.461
 11
549.727
 21
120.455
  0
LINE
  8
0
 10
549.727
 20
120.455
 11
549.734
 21
120.448
  0
LINE
  8
0
 10
549.734
 20
120.448
 11
549.741
 21
120.441
  0
LINE
  8
0
 10
549.741
 20
120.441
 11
549.748
 21
120.434
  0
LINE
  8
0
 10
549.748
 20
120.434
 11
549.755
 21
120.427
  0
LINE
  8
0
 10
549.755
 20
120.427
 11
549.761
 21
120.419
  0
LINE
  8
0
 10
549.761
 20
120.419
 11
549.766
 21
120.411
  0
LINE
  8
0
 10
549.766
 20
120.411
 11
549.772
 21
120.403
  0
LINE
  8
0
 10
549.772
 20
120.403
 11
549.776
 21
120.394
  0
LINE
  8
0
 10
549.776
 20
120.394
 11
549.781
 21
120.386
  0
LINE
  8
0
 10
549.781
 20
120.386
 11
549.785
 21
120.377
  0
LINE
  8
0
 10
549.785
 20
120.377
 11
549.788
 21
120.367
  0
LINE
  8
0
 10
549.788
 20
120.367
 11
549.791
 21
120.358
  0
LINE
  8
0
 10
549.791
 20
120.358
 11
549.794
 21
120.349
  0
LINE
  8
0
 10
549.794
 20
120.349
 11
549.796
 21
120.339
  0
LINE
  8
0
 10
549.796
 20
120.339
 11
549.798
 21
120.329
  0
LINE
  8
0
 10
549.798
 20
120.329
 11
549.799
 21
120.32
  0
LINE
  8
0
 10
549.799
 20
120.32
 11
549.8
 21
120.31
  0
LINE
  8
0
 10
549.8
 20
120.31
 11
549.8
 21
120.3
  0
LINE
  8
0
 10
549.8
 20
120.3
 11
549.8
 21
19.7
  0
LINE
  8
0
 10
549.8
 20
19.7
 11
549.8
 21
19.6902
  0
LINE
  8
0
 10
549.8
 20
19.6902
 11
549.799
 21
19.6804
  0
LINE
  8
0
 10
549.799
 20
19.6804
 11
549.798
 21
19.6707
  0
LINE
  8
0
 10
549.798
 20
19.6707
 11
549.796
 21
19.661
  0
LINE
  8
0
 10
549.796
 20
19.661
 11
549.794
 21
19.6514
  0
LINE
  8
0
 10
549.794
 20
19.6514
 11
549.791
 21
19.6419
  0
LINE
  8
0
 10
549.791
 20
19.6419
 11
549.788
 21
19.6326
  0
LINE
  8
0
 10
549.788
 20
19.6326
 11
549.785
 21
19.6235
  0
LINE
  8
0
 10
549.785
 20
19.6235
 11
549.781
 21
19.6145
  0
LINE
  8
0
 10
549.781
 20
19.6145
 11
549.776
 21
19.6057
  0
LINE
  8
0
 10
549.776
 20
19.6057
 11
549.772
 21
19.5972
  0
LINE
  8
0
 10
549.772
 20
19.5972
 11
549.766
 21
19.5889
  0
LINE
  8
0
 10
549.766
 20
19.5889
 11
549.761
 21
19.5809
  0
LINE
  8
0
 10
549.761
 20
19.5809
 11
549.755
 21
19.5731
  0
LINE
  8
0
 10
549.755
 20
19.5731
 11
549.748
 21
19.5657
  0
LINE
  8
0
 10
549.748
 20
19.5657
 11
549.741
 21
19.5586
  0
LINE
  8
0
 10
549.741
 20
19.5586
 11
549.734
 21
19.5518
  0
LINE
  8
0
 10
549.734
 20
19.5518
 11
549.727
 21
19.5454
  0
LINE
  8
0
 10
549.727
 20
19.5454
 11
549.719
 21
19.5394
  0
LINE
  8
0
 10
549.719
 20
19.5394
 11
549.711
 21
19.5337
  0
LINE
  8
0
 10
549.711
 20
19.5337
 11
549.703
 21
19.5284
  0
LINE
  8
0
 10
549.703
 20
19.5284
 11
549.694
 21
19.5236
  0
LINE
  8
0
 10
549.694
 20
19.5236
 11
549.685
 21
19.5192
  0
LINE
  8
0
 10
549.685
 20
19.5192
 11
549.677
 21
19.5152
  0
LINE
  8
0
 10
549.677
 20
19.5152
 11
549.667
 21
19.5117
  0
LINE
  8
0
 10
549.667
 20
19.5117
 11
549.658
 21
19.5086
  0
LINE
  8
0
 10
549.658
 20
19.5086
 11
549.649
 21
19.506
  0
LINE
  8
0
 10
549.649
 20
19.506
 11
549.639
 21
19.5038
  0
LINE
  8
0
 10
549.639
 20
19.5038
 11
549.629
 21
19.5022
  0
LINE
  8
0
 10
549.629
 20
19.5022
 11
549.62
 21
19.501
  0
LINE
  8
0
 10
549.62
 20
19.501
 11
549.61
 21
19.5002
  0
LINE
  8
0
 10
549.61
 20
19.5002
 11
549.6
 21
19.5
  0
LINE
  8
0
 10
549.6
 20
19.5
 11
383
 21
19.5
  0
LINE
  8
0
 10
708.372
 20
46.9031
 11
708.245
 21
46.9125
  0
LINE
  8
0
 10
708.245
 20
46.9125
 11
708.119
 21
46.9281
  0
LINE
  8
0
 10
708.119
 20
46.9281
 11
707.993
 21
46.95
  0
LINE
  8
0
 10
707.993
 20
46.95
 11
707.868
 21
46.9779
  0
LINE
  8
0
 10
707.868
 20
46.9779
 11
707.745
 21
47.0119
  0
LINE
  8
0
 10
707.745
 20
47.0119
 11
707.624
 21
47.052
  0
LINE
  8
0
 10
707.624
 20
47.052
 11
707.505
 21
47.0979
  0
LINE
  8
0
 10
707.505
 20
47.0979
 11
707.388
 21
47.1496
  0
LINE
  8
0
 10
707.388
 20
47.1496
 11
707.274
 21
47.207
  0
LINE
  8
0
 10
707.274
 20
47.207
 11
707.163
 21
47.2699
  0
LINE
  8
0
 10
707.163
 20
47.2699
 11
707.056
 21
47.3382
  0
LINE
  8
0
 10
707.056
 20
47.3382
 11
706.951
 21
47.4117
  0
LINE
  8
0
 10
706.951
 20
47.4117
 11
706.851
 21
47.4902
  0
LINE
  8
0
 10
706.851
 20
47.4902
 11
706.754
 21
47.5735
  0
LINE
  8
0
 10
706.754
 20
47.5735
 11
706.661
 21
47.6615
  0
LINE
  8
0
 10
706.661
 20
47.6615
 11
706.574
 21
47.7539
  0
LINE
  8
0
 10
706.574
 20
47.7539
 11
706.49
 21
47.8506
  0
LINE
  8
0
 10
706.49
 20
47.8506
 11
706.412
 21
47.9512
  0
LINE
  8
0
 10
706.412
 20
47.9512
 11
706.338
 21
48.0555
  0
LINE
  8
0
 10
706.338
 20
48.0555
 11
706.27
 21
48.1633
  0
LINE
  8
0
 10
706.27
 20
48.1633
 11
706.207
 21
48.2744
  0
LINE
  8
0
 10
706.207
 20
48.2744
 11
706.15
 21
48.3884
  0
LINE
  8
0
 10
706.15
 20
48.3884
 11
706.098
 21
48.505
  0
LINE
  8
0
 10
706.098
 20
48.505
 11
706.052
 21
48.6241
  0
LINE
  8
0
 10
706.052
 20
48.6241
 11
706.012
 21
48.7453
  0
LINE
  8
0
 10
706.012
 20
48.7453
 11
705.978
 21
48.8682
  0
LINE
  8
0
 10
705.978
 20
48.8682
 11
705.95
 21
48.9928
  0
LINE
  8
0
 10
705.95
 20
48.9928
 11
705.928
 21
49.1185
  0
LINE
  8
0
 10
705.928
 20
49.1185
 11
705.913
 21
49.2451
  0
LINE
  8
0
 10
705.913
 20
49.2451
 11
705.903
 21
49.3724
  0
LINE
  8
0
 10
705.903
 20
49.3724
 11
705.9
 21
49.5
  0
LINE
  8
0
 10
705.9
 20
49.5
 11
705.903
 21
49.6276
  0
LINE
  8
0
 10
705.903
 20
49.6276
 11
705.913
 21
49.7548
  0
LINE
  8
0
 10
705.913
 20
49.7548
 11
705.928
 21
49.8815
  0
LINE
  8
0
 10
705.928
 20
49.8815
 11
705.95
 21
50.0072
  0
LINE
  8
0
 10
705.95
 20
50.0072
 11
705.978
 21
50.1317
  0
LINE
  8
0
 10
705.978
 20
50.1317
 11
706.012
 21
50.2547
  0
LINE
  8
0
 10
706.012
 20
50.2547
 11
706.052
 21
50.3759
  0
LINE
  8
0
 10
706.052
 20
50.3759
 11
706.098
 21
50.495
  0
LINE
  8
0
 10
706.098
 20
50.495
 11
706.15
 21
50.6116
  0
LINE
  8
0
 10
706.15
 20
50.6116
 11
706.207
 21
50.7256
  0
LINE
  8
0
 10
706.207
 20
50.7256
 11
706.27
 21
50.8367
  0
LINE
  8
0
 10
706.27
 20
50.8367
 11
706.338
 21
50.9445
  0
LINE
  8
0
 10
706.338
 20
50.9445
 11
706.412
 21
51.0488
  0
LINE
  8
0
 10
706.412
 20
51.0488
 11
706.49
 21
51.1494
  0
LINE
  8
0
 10
706.49
 20
51.1494
 11
706.574
 21
51.246
  0
LINE
  8
0
 10
706.574
 20
51.246
 11
706.661
 21
51.3385
  0
LINE
  8
0
 10
706.661
 20
51.3385
 11
706.754
 21
51.4265
  0
LINE
  8
0
 10
706.754
 20
51.4265
 11
706.851
 21
51.5098
  0
LINE
  8
0
 10
706.851
 20
51.5098
 11
706.951
 21
51.5883
  0
LINE
  8
0
 10
706.951
 20
51.5883
 11
707.056
 21
51.6618
  0
LINE
  8
0
 10
707.056
 20
51.6618
 11
707.163
 21
51.7301
  0
LINE
  8
0
 10
707.163
 20
51.7301
 11
707.274
 21
51.793
  0
LINE
  8
0
 10
707.274
 20
51.793
 11
707.388
 21
51.8504
  0
LINE
  8
0
 10
707.388
 20
51.8504
 11
707.505
 21
51.9021
  0
LINE
  8
0
 10
707.505
 20
51.9021
 11
707.624
 21
51.948
  0
LINE
  8
0
 10
707.624
 20
51.948
 11
707.745
 21
51.988
  0
LINE
  8
0
 10
707.745
 20
51.988
 11
707.868
 21
52.0221
  0
LINE
  8
0
 10
707.868
 20
52.0221
 11
707.993
 21
52.05
  0
LINE
  8
0
 10
707.993
 20
52.05
 11
708.119
 21
52.0719
  0
LINE
  8
0
 10
708.119
 20
52.0719
 11
708.245
 21
52.0875
  0
LINE
  8
0
 10
708.245
 20
52.0875
 11
708.372
 21
52.0969
  0
LINE
  8
0
 10
708.372
 20
52.0969
 11
708.5
 21
52.1
  0
LINE
  8
0
 10
708.5
 20
52.1
 11
708.628
 21
52.0969
  0
LINE
  8
0
 10
708.628
 20
52.0969
 11
708.755
 21
52.0875
  0
LINE
  8
0
 10
708.755
 20
52.0875
 11
708.881
 21
52.0719
  0
LINE
  8
0
 10
708.881
 20
52.0719
 11
709.007
 21
52.05
  0
LINE
  8
0
 10
709.007
 20
52.05
 11
709.132
 21
52.0221
  0
LINE
  8
0
 10
709.132
 20
52.0221
 11
709.255
 21
51.988
  0
LINE
  8
0
 10
709.255
 20
51.988
 11
709.376
 21
51.948
  0
LINE
  8
0
 10
709.376
 20
51.948
 11
709.495
 21
51.9021
  0
LINE
  8
0
 10
709.495
 20
51.9021
 11
709.612
 21
51.8504
  0
LINE
  8
0
 10
709.612
 20
51.8504
 11
709.726
 21
51.793
  0
LINE
  8
0
 10
709.726
 20
51.793
 11
709.837
 21
51.7301
  0
LINE
  8
0
 10
709.837
 20
51.7301
 11
709.944
 21
51.6618
  0
LINE
  8
0
 10
709.944
 20
51.6618
 11
710.049
 21
51.5883
  0
LINE
  8
0
 10
710.049
 20
51.5883
 11
710.149
 21
51.5098
  0
LINE
  8
0
 10
710.149
 20
51.5098
 11
710.246
 21
51.4265
  0
LINE
  8
0
 10
710.246
 20
51.4265
 11
710.339
 21
51.3385
  0
LINE
  8
0
 10
710.339
 20
51.3385
 11
710.426
 21
51.246
  0
LINE
  8
0
 10
710.426
 20
51.246
 11
710.51
 21
51.1494
  0
LINE
  8
0
 10
710.51
 20
51.1494
 11
710.588
 21
51.0488
  0
LINE
  8
0
 10
710.588
 20
51.0488
 11
710.662
 21
50.9445
  0
LINE
  8
0
 10
710.662
 20
50.9445
 11
710.73
 21
50.8367
  0
LINE
  8
0
 10
710.73
 20
50.8367
 11
710.793
 21
50.7256
  0
LINE
  8
0
 10
710.793
 20
50.7256
 11
710.85
 21
50.6116
  0
LINE
  8
0
 10
710.85
 20
50.6116
 11
710.902
 21
50.495
  0
LINE
  8
0
 10
710.902
 20
50.495
 11
710.948
 21
50.3759
  0
LINE
  8
0
 10
710.948
 20
50.3759
 11
710.988
 21
50.2547
  0
LINE
  8
0
 10
710.988
 20
50.2547
 11
711.022
 21
50.1317
  0
LINE
  8
0
 10
711.022
 20
50.1317
 11
711.05
 21
50.0072
  0
LINE
  8
0
 10
711.05
 20
50.0072
 11
711.072
 21
49.8815
  0
LINE
  8
0
 10
711.072
 20
49.8815
 11
711.087
 21
49.7548
  0
LINE
  8
0
 10
711.087
 20
49.7548
 11
711.097
 21
49.6276
  0
LINE
  8
0
 10
711.097
 20
49.6276
 11
711.1
 21
49.5
  0
LINE
  8
0
 10
711.1
 20
49.5
 11
711.097
 21
49.3724
  0
LINE
  8
0
 10
711.097
 20
49.3724
 11
711.087
 21
49.2451
  0
LINE
  8
0
 10
711.087
 20
49.2451
 11
711.072
 21
49.1185
  0
LINE
  8
0
 10
711.072
 20
49.1185
 11
711.05
 21
48.9928
  0
LINE
  8
0
 10
711.05
 20
48.9928
 11
711.022
 21
48.8682
  0
LINE
  8
0
 10
711.022
 20
48.8682
 11
710.988
 21
48.7453
  0
LINE
  8
0
 10
710.988
 20
48.7453
 11
710.948
 21
48.6241
  0
LINE
  8
0
 10
710.948
 20
48.6241
 11
710.902
 21
48.505
  0
LINE
  8
0
 10
710.902
 20
48.505
 11
710.85
 21
48.3884
  0
LINE
  8
0
 10
710.85
 20
48.3884
 11
710.793
 21
48.2744
  0
LINE
  8
0
 10
710.793
 20
48.2744
 11
710.73
 21
48.1633
  0
LINE
  8
0
 10
710.73
 20
48.1633
 11
710.662
 21
48.0555
  0
LINE
  8
0
 10
710.662
 20
48.0555
 11
710.588
 21
47.9512
  0
LINE
  8
0
 10
710.588
 20
47.9512
 11
710.51
 21
47.8506
  0
LINE
  8
0
 10
710.51
 20
47.8506
 11
710.426
 21
47.7539
  0
LINE
  8
0
 10
710.426
 20
47.7539
 11
710.339
 21
47.6615
  0
LINE
  8
0
 10
710.339
 20
47.6615
 11
710.246
 21
47.5735
  0
LINE
  8
0
 10
710.246
 20
47.5735
 11
710.149
 21
47.4902
  0
LINE
  8
0
 10
710.149
 20
47.4902
 11
710.049
 21
47.4117
  0
LINE
  8
0
 10
710.049
 20
47.4117
 11
709.944
 21
47.3382
  0
LINE
  8
0
 10
709.944
 20
47.3382
 11
709.837
 21
47.2699
  0
LINE
  8
0
 10
709.837
 20
47.2699
 11
709.726
 21
47.207
  0
LINE
  8
0
 10
709.726
 20
47.207
 11
709.612
 21
47.1496
  0
LINE
  8
0
 10
709.612
 20
47.1496
 11
709.495
 21
47.0979
  0
LINE
  8
0
 10
709.495
 20
47.0979
 11
709.376
 21
47.052
  0
LINE
  8
0
 10
709.376
 20
47.052
 11
709.255
 21
47.0119
  0
LINE
  8
0
 10
709.255
 20
47.0119
 11
709.132
 21
46.9779
  0
LINE
  8
0
 10
709.132
 20
46.9779
 11
709.007
 21
46.95
  0
LINE
  8
0
 10
709.007
 20
46.95
 11
708.881
 21
46.9281
  0
LINE
  8
0
 10
708.881
 20
46.9281
 11
708.755
 21
46.9125
  0
LINE
  8
0
 10
708.755
 20
46.9125
 11
708.628
 21
46.9031
  0
LINE
  8
0
 10
708.628
 20
46.9031
 11
708.5
 21
46.9
  0
LINE
  8
0
 10
708.5
 20
46.9
 11
708.372
 21
46.9031
  0
LINE
  8
0
 10
672.372
 20
46.9031
 11
672.245
 21
46.9125
  0
LINE
  8
0
 10
672.245
 20
46.9125
 11
672.119
 21
46.9281
  0
LINE
  8
0
 10
672.119
 20
46.9281
 11
671.993
 21
46.95
  0
LINE
  8
0
 10
671.993
 20
46.95
 11
671.868
 21
46.9779
  0
LINE
  8
0
 10
671.868
 20
46.9779
 11
671.745
 21
47.0119
  0
LINE
  8
0
 10
671.745
 20
47.0119
 11
671.624
 21
47.052
  0
LINE
  8
0
 10
671.624
 20
47.052
 11
671.505
 21
47.0979
  0
LINE
  8
0
 10
671.505
 20
47.0979
 11
671.388
 21
47.1496
  0
LINE
  8
0
 10
671.388
 20
47.1496
 11
671.274
 21
47.207
  0
LINE
  8
0
 10
671.274
 20
47.207
 11
671.163
 21
47.2699
  0
LINE
  8
0
 10
671.163
 20
47.2699
 11
671.056
 21
47.3382
  0
LINE
  8
0
 10
671.056
 20
47.3382
 11
670.951
 21
47.4117
  0
LINE
  8
0
 10
670.951
 20
47.4117
 11
670.851
 21
47.4902
  0
LINE
  8
0
 10
670.851
 20
47.4902
 11
670.754
 21
47.5735
  0
LINE
  8
0
 10
670.754
 20
47.5735
 11
670.661
 21
47.6615
  0
LINE
  8
0
 10
670.661
 20
47.6615
 11
670.574
 21
47.7539
  0
LINE
  8
0
 10
670.574
 20
47.7539
 11
670.49
 21
47.8506
  0
LINE
  8
0
 10
670.49
 20
47.8506
 11
670.412
 21
47.9512
  0
LINE
  8
0
 10
670.412
 20
47.9512
 11
670.338
 21
48.0555
  0
LINE
  8
0
 10
670.338
 20
48.0555
 11
670.27
 21
48.1633
  0
LINE
  8
0
 10
670.27
 20
48.1633
 11
670.207
 21
48.2744
  0
LINE
  8
0
 10
670.207
 20
48.2744
 11
670.15
 21
48.3884
  0
LINE
  8
0
 10
670.15
 20
48.3884
 11
670.098
 21
48.505
  0
LINE
  8
0
 10
670.098
 20
48.505
 11
670.052
 21
48.6241
  0
LINE
  8
0
 10
670.052
 20
48.6241
 11
670.012
 21
48.7453
  0
LINE
  8
0
 10
670.012
 20
48.7453
 11
669.978
 21
48.8682
  0
LINE
  8
0
 10
669.978
 20
48.8682
 11
669.95
 21
48.9928
  0
LINE
  8
0
 10
669.95
 20
48.9928
 11
669.928
 21
49.1185
  0
LINE
  8
0
 10
669.928
 20
49.1185
 11
669.913
 21
49.2451
  0
LINE
  8
0
 10
669.913
 20
49.2451
 11
669.903
 21
49.3724
  0
LINE
  8
0
 10
669.903
 20
49.3724
 11
669.9
 21
49.5
  0
LINE
  8
0
 10
669.9
 20
49.5
 11
669.903
 21
49.6276
  0
LINE
  8
0
 10
669.903
 20
49.6276
 11
669.913
 21
49.7548
  0
LINE
  8
0
 10
669.913
 20
49.7548
 11
669.928
 21
49.8815
  0
LINE
  8
0
 10
669.928
 20
49.8815
 11
669.95
 21
50.0072
  0
LINE
  8
0
 10
669.95
 20
50.0072
 11
669.978
 21
50.1317
  0
LINE
  8
0
 10
669.978
 20
50.1317
 11
670.012
 21
50.2547
  0
LINE
  8
0
 10
670.012
 20
50.2547
 11
670.052
 21
50.3759
  0
LINE
  8
0
 10
670.052
 20
50.3759
 11
670.098
 21
50.495
  0
LINE
  8
0
 10
670.098
 20
50.495
 11
670.15
 21
50.6116
  0
LINE
  8
0
 10
670.15
 20
50.6116
 11
670.207
 21
50.7256
  0
LINE
  8
0
 10
670.207
 20
50.7256
 11
670.27
 21
50.8367
  0
LINE
  8
0
 10
670.27
 20
50.8367
 11
670.338
 21
50.9445
  0
LINE
  8
0
 10
670.338
 20
50.9445
 11
670.412
 21
51.0488
  0
LINE
  8
0
 10
670.412
 20
51.0488
 11
670.49
 21
51.1494
  0
LINE
  8
0
 10
670.49
 20
51.1494
 11
670.574
 21
51.246
  0
LINE
  8
0
 10
670.574
 20
51.246
 11
670.661
 21
51.3385
  0
LINE
  8
0
 10
670.661
 20
51.3385
 11
670.754
 21
51.4265
  0
LINE
  8
0
 10
670.754
 20
51.4265
 11
670.851
 21
51.5098
  0
LINE
  8
0
 10
670.851
 20
51.5098
 11
670.951
 21
51.5883
  0
LINE
  8
0
 10
670.951
 20
51.5883
 11
671.056
 21
51.6618
  0
LINE
  8
0
 10
671.056
 20
51.6618
 11
671.163
 21
51.7301
  0
LINE
  8
0
 10
671.163
 20
51.7301
 11
671.274
 21
51.793
  0
LINE
  8
0
 10
671.274
 20
51.793
 11
671.388
 21
51.8504
  0
LINE
  8
0
 10
671.388
 20
51.8504
 11
671.505
 21
51.9021
  0
LINE
  8
0
 10
671.505
 20
51.9021
 11
671.624
 21
51.948
  0
LINE
  8
0
 10
671.624
 20
51.948
 11
671.745
 21
51.988
  0
LINE
  8
0
 10
671.745
 20
51.988
 11
671.868
 21
52.0221
  0
LINE
  8
0
 10
671.868
 20
52.0221
 11
671.993
 21
52.05
  0
LINE
  8
0
 10
671.993
 20
52.05
 11
672.119
 21
52.0719
  0
LINE
  8
0
 10
672.119
 20
52.0719
 11
672.245
 21
52.0875
  0
LINE
  8
0
 10
672.245
 20
52.0875
 11
672.372
 21
52.0969
  0
LINE
  8
0
 10
672.372
 20
52.0969
 11
672.5
 21
52.1
  0
LINE
  8
0
 10
672.5
 20
52.1
 11
672.628
 21
52.0969
  0
LINE
  8
0
 10
672.628
 20
52.0969
 11
672.755
 21
52.0875
  0
LINE
  8
0
 10
672.755
 20
52.0875
 11
672.881
 21
52.0719
  0
LINE
  8
0
 10
672.881
 20
52.0719
 11
673.007
 21
52.05
  0
LINE
  8
0
 10
673.007
 20
52.05
 11
673.132
 21
52.0221
  0
LINE
  8
0
 10
673.132
 20
52.0221
 11
673.255
 21
51.988
  0
LINE
  8
0
 10
673.255
 20
51.988
 11
673.376
 21
51.948
  0
LINE
  8
0
 10
673.376
 20
51.948
 11
673.495
 21
51.9021
  0
LINE
  8
0
 10
673.495
 20
51.9021
 11
673.612
 21
51.8504
  0
LINE
  8
0
 10
673.612
 20
51.8504
 11
673.726
 21
51.793
  0
LINE
  8
0
 10
673.726
 20
51.793
 11
673.837
 21
51.7301
  0
LINE
  8
0
 10
673.837
 20
51.7301
 11
673.944
 21
51.6618
  0
LINE
  8
0
 10
673.944
 20
51.6618
 11
674.049
 21
51.5883
  0
LINE
  8
0
 10
674.049
 20
51.5883
 11
674.149
 21
51.5098
  0
LINE
  8
0
 10
674.149
 20
51.5098
 11
674.246
 21
51.4265
  0
LINE
  8
0
 10
674.246
 20
51.4265
 11
674.339
 21
51.3385
  0
LINE
  8
0
 10
674.339
 20
51.3385
 11
674.426
 21
51.246
  0
LINE
  8
0
 10
674.426
 20
51.246
 11
674.51
 21
51.1494
  0
LINE
  8
0
 10
674.51
 20
51.1494
 11
674.588
 21
51.0488
  0
LINE
  8
0
 10
674.588
 20
51.0488
 11
674.662
 21
50.9445
  0
LINE
  8
0
 10
674.662
 20
50.9445
 11
674.73
 21
50.8367
  0
LINE
  8
0
 10
674.73
 20
50.8367
 11
674.793
 21
50.7256
  0
LINE
  8
0
 10
674.793
 20
50.7256
 11
674.85
 21
50.6116
  0
LINE
  8
0
 10
674.85
 20
50.6116
 11
674.902
 21
50.495
  0
LINE
  8
0
 10
674.902
 20
50.495
 11
674.948
 21
50.3759
  0
LINE
  8
0
 10
674.948
 20
50.3759
 11
674.988
 21
50.2547
  0
LINE
  8
0
 10
674.988
 20
50.2547
 11
675.022
 21
50.1317
  0
LINE
  8
0
 10
675.022
 20
50.1317
 11
675.05
 21
50.0072
  0
LINE
  8
0
 10
675.05
 20
50.0072
 11
675.072
 21
49.8815
  0
LINE
  8
0
 10
675.072
 20
49.8815
 11
675.087
 21
49.7548
  0
LINE
  8
0
 10
675.087
 20
49.7548
 11
675.097
 21
49.6276
  0
LINE
  8
0
 10
675.097
 20
49.6276
 11
675.1
 21
49.5
  0
LINE
  8
0
 10
675.1
 20
49.5
 11
675.097
 21
49.3724
  0
LINE
  8
0
 10
675.097
 20
49.3724
 11
675.087
 21
49.2451
  0
LINE
  8
0
 10
675.087
 20
49.2451
 11
675.072
 21
49.1185
  0
LINE
  8
0
 10
675.072
 20
49.1185
 11
675.05
 21
48.9928
  0
LINE
  8
0
 10
675.05
 20
48.9928
 11
675.022
 21
48.8682
  0
LINE
  8
0
 10
675.022
 20
48.8682
 11
674.988
 21
48.7453
  0
LINE
  8
0
 10
674.988
 20
48.7453
 11
674.948
 21
48.6241
  0
LINE
  8
0
 10
674.948
 20
48.6241
 11
674.902
 21
48.505
  0
LINE
  8
0
 10
674.902
 20
48.505
 11
674.85
 21
48.3884
  0
LINE
  8
0
 10
674.85
 20
48.3884
 11
674.793
 21
48.2744
  0
LINE
  8
0
 10
674.793
 20
48.2744
 11
674.73
 21
48.1633
  0
LINE
  8
0
 10
674.73
 20
48.1633
 11
674.662
 21
48.0555
  0
LINE
  8
0
 10
674.662
 20
48.0555
 11
674.588
 21
47.9512
  0
LINE
  8
0
 10
674.588
 20
47.9512
 11
674.51
 21
47.8506
  0
LINE
  8
0
 10
674.51
 20
47.8506
 11
674.426
 21
47.7539
  0
LINE
  8
0
 10
674.426
 20
47.7539
 11
674.339
 21
47.6615
  0
LINE
  8
0
 10
674.339
 20
47.6615
 11
674.246
 21
47.5735
  0
LINE
  8
0
 10
674.246
 20
47.5735
 11
674.149
 21
47.4902
  0
LINE
  8
0
 10
674.149
 20
47.4902
 11
674.049
 21
47.4117
  0
LINE
  8
0
 10
674.049
 20
47.4117
 11
673.944
 21
47.3382
  0
LINE
  8
0
 10
673.944
 20
47.3382
 11
673.837
 21
47.2699
  0
LINE
  8
0
 10
673.837
 20
47.2699
 11
673.726
 21
47.207
  0
LINE
  8
0
 10
673.726
 20
47.207
 11
673.612
 21
47.1496
  0
LINE
  8
0
 10
673.612
 20
47.1496
 11
673.495
 21
47.0979
  0
LINE
  8
0
 10
673.495
 20
47.0979
 11
673.376
 21
47.052
  0
LINE
  8
0
 10
673.376
 20
47.052
 11
673.255
 21
47.0119
  0
LINE
  8
0
 10
673.255
 20
47.0119
 11
673.132
 21
46.9779
  0
LINE
  8
0
 10
673.132
 20
46.9779
 11
673.007
 21
46.95
  0
LINE
  8
0
 10
673.007
 20
46.95
 11
672.881
 21
46.9281
  0
LINE
  8
0
 10
672.881
 20
46.9281
 11
672.755
 21
46.9125
  0
LINE
  8
0
 10
672.755
 20
46.9125
 11
672.628
 21
46.9031
  0
LINE
  8
0
 10
672.628
 20
46.9031
 11
672.5
 21
46.9
  0
LINE
  8
0
 10
672.5
 20
46.9
 11
672.372
 21
46.9031
  0
LINE
  8
0
 10
672.372
 20
10.9031
 11
672.245
 21
10.9125
  0
LINE
  8
0
 10
672.245
 20
10.9125
 11
672.119
 21
10.9281
  0
LINE
  8
0
 10
672.119
 20
10.9281
 11
671.993
 21
10.95
  0
LINE
  8
0
 10
671.993
 20
10.95
 11
671.868
 21
10.9779
  0
LINE
  8
0
 10
671.868
 20
10.9779
 11
671.745
 21
11.0119
  0
LINE
  8
0
 10
671.745
 20
11.0119
 11
671.624
 21
11.052
  0
LINE
  8
0
 10
671.624
 20
11.052
 11
671.505
 21
11.0979
  0
LINE
  8
0
 10
671.505
 20
11.0979
 11
671.388
 21
11.1496
  0
LINE
  8
0
 10
671.388
 20
11.1496
 11
671.274
 21
11.207
  0
LINE
  8
0
 10
671.274
 20
11.207
 11
671.163
 21
11.2699
  0
LINE
  8
0
 10
671.163
 20
11.2699
 11
671.056
 21
11.3382
  0
LINE
  8
0
 10
671.056
 20
11.3382
 11
670.951
 21
11.4117
  0
LINE
  8
0
 10
670.951
 20
11.4117
 11
670.851
 21
11.4902
  0
LINE
  8
0
 10
670.851
 20
11.4902
 11
670.754
 21
11.5735
  0
LINE
  8
0
 10
670.754
 20
11.5735
 11
670.661
 21
11.6615
  0
LINE
  8
0
 10
670.661
 20
11.6615
 11
670.574
 21
11.7539
  0
LINE
  8
0
 10
670.574
 20
11.7539
 11
670.49
 21
11.8506
  0
LINE
  8
0
 10
670.49
 20
11.8506
 11
670.412
 21
11.9512
  0
LINE
  8
0
 10
670.412
 20
11.9512
 11
670.338
 21
12.0555
  0
LINE
  8
0
 10
670.338
 20
12.0555
 11
670.27
 21
12.1633
  0
LINE
  8
0
 10
670.27
 20
12.1633
 11
670.207
 21
12.2744
  0
LINE
  8
0
 10
670.207
 20
12.2744
 11
670.15
 21
12.3884
  0
LINE
  8
0
 10
670.15
 20
12.3884
 11
670.098
 21
12.505
  0
LINE
  8
0
 10
670.098
 20
12.505
 11
670.052
 21
12.6241
  0
LINE
  8
0
 10
670.052
 20
12.6241
 11
670.012
 21
12.7453
  0
LINE
  8
0
 10
670.012
 20
12.7453
 11
669.978
 21
12.8682
  0
LINE
  8
0
 10
669.978
 20
12.8682
 11
669.95
 21
12.9928
  0
LINE
  8
0
 10
669.95
 20
12.9928
 11
669.928
 21
13.1185
  0
LINE
  8
0
 10
669.928
 20
13.1185
 11
669.913
 21
13.2451
  0
LINE
  8
0
 10
669.913
 20
13.2451
 11
669.903
 21
13.3724
  0
LINE
  8
0
 10
669.903
 20
13.3724
 11
669.9
 21
13.5
  0
LINE
  8
0
 10
669.9
 20
13.5
 11
669.903
 21
13.6276
  0
LINE
  8
0
 10
669.903
 20
13.6276
 11
669.913
 21
13.7548
  0
LINE
  8
0
 10
669.913
 20
13.7548
 11
669.928
 21
13.8815
  0
LINE
  8
0
 10
669.928
 20
13.8815
 11
669.95
 21
14.0072
  0
LINE
  8
0
 10
669.95
 20
14.0072
 11
669.978
 21
14.1317
  0
LINE
  8
0
 10
669.978
 20
14.1317
 11
670.012
 21
14.2547
  0
LINE
  8
0
 10
670.012
 20
14.2547
 11
670.052
 21
14.3759
  0
LINE
  8
0
 10
670.052
 20
14.3759
 11
670.098
 21
14.495
  0
LINE
  8
0
 10
670.098
 20
14.495
 11
670.15
 21
14.6116
  0
LINE
  8
0
 10
670.15
 20
14.6116
 11
670.207
 21
14.7256
  0
LINE
  8
0
 10
670.207
 20
14.7256
 11
670.27
 21
14.8367
  0
LINE
  8
0
 10
670.27
 20
14.8367
 11
670.338
 21
14.9445
  0
LINE
  8
0
 10
670.338
 20
14.9445
 11
670.412
 21
15.0488
  0
LINE
  8
0
 10
670.412
 20
15.0488
 11
670.49
 21
15.1494
  0
LINE
  8
0
 10
670.49
 20
15.1494
 11
670.574
 21
15.246
  0
LINE
  8
0
 10
670.574
 20
15.246
 11
670.661
 21
15.3385
  0
LINE
  8
0
 10
670.661
 20
15.3385
 11
670.754
 21
15.4265
  0
LINE
  8
0
 10
670.754
 20
15.4265
 11
670.851
 21
15.5098
  0
LINE
  8
0
 10
670.851
 20
15.5098
 11
670.951
 21
15.5883
  0
LINE
  8
0
 10
670.951
 20
15.5883
 11
671.056
 21
15.6618
  0
LINE
  8
0
 10
671.056
 20
15.6618
 11
671.163
 21
15.7301
  0
LINE
  8
0
 10
671.163
 20
15.7301
 11
671.274
 21
15.793
  0
LINE
  8
0
 10
671.274
 20
15.793
 11
671.388
 21
15.8504
  0
LINE
  8
0
 10
671.388
 20
15.8504
 11
671.505
 21
15.9021
  0
LINE
  8
0
 10
671.505
 20
15.9021
 11
671.624
 21
15.948
  0
LINE
  8
0
 10
671.624
 20
15.948
 11
671.745
 21
15.988
  0
LINE
  8
0
 10
671.745
 20
15.988
 11
671.868
 21
16.0221
  0
LINE
  8
0
 10
671.868
 20
16.0221
 11
671.993
 21
16.05
  0
LINE
  8
0
 10
671.993
 20
16.05
 11
672.119
 21
16.0719
  0
LINE
  8
0
 10
672.119
 20
16.0719
 11
672.245
 21
16.0875
  0
LINE
  8
0
 10
672.245
 20
16.0875
 11
672.372
 21
16.0969
  0
LINE
  8
0
 10
672.372
 20
16.0969
 11
672.5
 21
16.1
  0
LINE
  8
0
 10
672.5
 20
16.1
 11
672.628
 21
16.0969
  0
LINE
  8
0
 10
672.628
 20
16.0969
 11
672.755
 21
16.0875
  0
LINE
  8
0
 10
672.755
 20
16.0875
 11
672.881
 21
16.0719
  0
LINE
  8
0
 10
672.881
 20
16.0719
 11
673.007
 21
16.05
  0
LINE
  8
0
 10
673.007
 20
16.05
 11
673.132
 21
16.0221
  0
LINE
  8
0
 10
673.132
 20
16.0221
 11
673.255
 21
15.988
  0
LINE
  8
0
 10
673.255
 20
15.988
 11
673.376
 21
15.948
  0
LINE
  8
0
 10
673.376
 20
15.948
 11
673.495
 21
15.9021
  0
LINE
  8
0
 10
673.495
 20
15.9021
 11
673.612
 21
15.8504
  0
LINE
  8
0
 10
673.612
 20
15.8504
 11
673.726
 21
15.793
  0
LINE
  8
0
 10
673.726
 20
15.793
 11
673.837
 21
15.7301
  0
LINE
  8
0
 10
673.837
 20
15.7301
 11
673.944
 21
15.6618
  0
LINE
  8
0
 10
673.944
 20
15.6618
 11
674.049
 21
15.5883
  0
LINE
  8
0
 10
674.049
 20
15.5883
 11
674.149
 21
15.5098
  0
LINE
  8
0
 10
674.149
 20
15.5098
 11
674.246
 21
15.4265
  0
LINE
  8
0
 10
674.246
 20
15.4265
 11
674.339
 21
15.3385
  0
LINE
  8
0
 10
674.339
 20
15.3385
 11
674.426
 21
15.246
  0
LINE
  8
0
 10
674.426
 20
15.246
 11
674.51
 21
15.1494
  0
LINE
  8
0
 10
674.51
 20
15.1494
 11
674.588
 21
15.0488
  0
LINE
  8
0
 10
674.588
 20
15.0488
 11
674.662
 21
14.9445
  0
LINE
  8
0
 10
674.662
 20
14.9445
 11
674.73
 21
14.8367
  0
LINE
  8
0
 10
674.73
 20
14.8367
 11
674.793
 21
14.7256
  0
LINE
  8
0
 10
674.793
 20
14.7256
 11
674.85
 21
14.6116
  0
LINE
  8
0
 10
674.85
 20
14.6116
 11
674.902
 21
14.495
  0
LINE
  8
0
 10
674.902
 20
14.495
 11
674.948
 21
14.3759
  0
LINE
  8
0
 10
674.948
 20
14.3759
 11
674.988
 21
14.2547
  0
LINE
  8
0
 10
674.988
 20
14.2547
 11
675.022
 21
14.1317
  0
LINE
  8
0
 10
675.022
 20
14.1317
 11
675.05
 21
14.0072
  0
LINE
  8
0
 10
675.05
 20
14.0072
 11
675.072
 21
13.8815
  0
LINE
  8
0
 10
675.072
 20
13.8815
 11
675.087
 21
13.7548
  0
LINE
  8
0
 10
675.087
 20
13.7548
 11
675.097
 21
13.6276
  0
LINE
  8
0
 10
675.097
 20
13.6276
 11
675.1
 21
13.5
  0
LINE
  8
0
 10
675.1
 20
13.5
 11
675.097
 21
13.3724
  0
LINE
  8
0
 10
675.097
 20
13.3724
 11
675.087
 21
13.2451
  0
LINE
  8
0
 10
675.087
 20
13.2451
 11
675.072
 21
13.1185
  0
LINE
  8
0
 10
675.072
 20
13.1185
 11
675.05
 21
12.9928
  0
LINE
  8
0
 10
675.05
 20
12.9928
 11
675.022
 21
12.8682
  0
LINE
  8
0
 10
675.022
 20
12.8682
 11
674.988
 21
12.7453
  0
LINE
  8
0
 10
674.988
 20
12.7453
 11
674.948
 21
12.6241
  0
LINE
  8
0
 10
674.948
 20
12.6241
 11
674.902
 21
12.505
  0
LINE
  8
0
 10
674.902
 20
12.505
 11
674.85
 21
12.3884
  0
LINE
  8
0
 10
674.85
 20
12.3884
 11
674.793
 21
12.2744
  0
LINE
  8
0
 10
674.793
 20
12.2744
 11
674.73
 21
12.1633
  0
LINE
  8
0
 10
674.73
 20
12.1633
 11
674.662
 21
12.0555
  0
LINE
  8
0
 10
674.662
 20
12.0555
 11
674.588
 21
11.9512
  0
LINE
  8
0
 10
674.588
 20
11.9512
 11
674.51
 21
11.8506
  0
LINE
  8
0
 10
674.51
 20
11.8506
 11
674.426
 21
11.7539
  0
LINE
  8
0
 10
674.426
 20
11.7539
 11
674.339
 21
11.6615
  0
LINE
  8
0
 10
674.339
 20
11.6615
 11
674.246
 21
11.5735
  0
LINE
  8
0
 10
674.246
 20
11.5735
 11
674.149
 21
11.4902
  0
LINE
  8
0
 10
674.149
 20
11.4902
 11
674.049
 21
11.4117
  0
LINE
  8
0
 10
674.049
 20
11.4117
 11
673.944
 21
11.3382
  0
LINE
  8
0
 10
673.944
 20
11.3382
 11
673.837
 21
11.2699
  0
LINE
  8
0
 10
673.837
 20
11.2699
 11
673.726
 21
11.207
  0
LINE
  8
0
 10
673.726
 20
11.207
 11
673.612
 21
11.1496
  0
LINE
  8
0
 10
673.612
 20
11.1496
 11
673.495
 21
11.0979
  0
LINE
  8
0
 10
673.495
 20
11.0979
 11
673.376
 21
11.052
  0
LINE
  8
0
 10
673.376
 20
11.052
 11
673.255
 21
11.0119
  0
LINE
  8
0
 10
673.255
 20
11.0119
 11
673.132
 21
10.9779
  0
LINE
  8
0
 10
673.132
 20
10.9779
 11
673.007
 21
10.95
  0
LINE
  8
0
 10
673.007
 20
10.95
 11
672.881
 21
10.9281
  0
LINE
  8
0
 10
672.881
 20
10.9281
 11
672.755
 21
10.9125
  0
LINE
  8
0
 10
672.755
 20
10.9125
 11
672.628
 21
10.9031
  0
LINE
  8
0
 10
672.628
 20
10.9031
 11
672.5
 21
10.9
  0
LINE
  8
0
 10
672.5
 20
10.9
 11
672.372
 21
10.9031
  0
LINE
  8
0
 10
708.372
 20
10.9031
 11
708.245
 21
10.9125
  0
LINE
  8
0
 10
708.245
 20
10.9125
 11
708.119
 21
10.9281
  0
LINE
  8
0
 10
708.119
 20
10.9281
 11
707.993
 21
10.95
  0
LINE
  8
0
 10
707.993
 20
10.95
 11
707.868
 21
10.9779
  0
LINE
  8
0
 10
707.868
 20
10.9779
 11
707.745
 21
11.0119
  0
LINE
  8
0
 10
707.745
 20
11.0119
 11
707.624
 21
11.052
  0
LINE
  8
0
 10
707.624
 20
11.052
 11
707.505
 21
11.0979
  0
LINE
  8
0
 10
707.505
 20
11.0979
 11
707.388
 21
11.1496
  0
LINE
  8
0
 10
707.388
 20
11.1496
 11
707.274
 21
11.207
  0
LINE
  8
0
 10
707.274
 20
11.207
 11
707.163
 21
11.2699
  0
LINE
  8
0
 10
707.163
 20
11.2699
 11
707.056
 21
11.3382
  0
LINE
  8
0
 10
707.056
 20
11.3382
 11
706.951
 21
11.4117
  0
LINE
  8
0
 10
706.951
 20
11.4117
 11
706.851
 21
11.4902
  0
LINE
  8
0
 10
706.851
 20
11.4902
 11
706.754
 21
11.5735
  0
LINE
  8
0
 10
706.754
 20
11.5735
 11
706.661
 21
11.6615
  0
LINE
  8
0
 10
706.661
 20
11.6615
 11
706.574
 21
11.7539
  0
LINE
  8
0
 10
706.574
 20
11.7539
 11
706.49
 21
11.8506
  0
LINE
  8
0
 10
706.49
 20
11.8506
 11
706.412
 21
11.9512
  0
LINE
  8
0
 10
706.412
 20
11.9512
 11
706.338
 21
12.0555
  0
LINE
  8
0
 10
706.338
 20
12.0555
 11
706.27
 21
12.1633
  0
LINE
  8
0
 10
706.27
 20
12.1633
 11
706.207
 21
12.2744
  0
LINE
  8
0
 10
706.207
 20
12.2744
 11
706.15
 21
12.3884
  0
LINE
  8
0
 10
706.15
 20
12.3884
 11
706.098
 21
12.505
  0
LINE
  8
0
 10
706.098
 20
12.505
 11
706.052
 21
12.6241
  0
LINE
  8
0
 10
706.052
 20
12.6241
 11
706.012
 21
12.7453
  0
LINE
  8
0
 10
706.012
 20
12.7453
 11
705.978
 21
12.8682
  0
LINE
  8
0
 10
705.978
 20
12.8682
 11
705.95
 21
12.9928
  0
LINE
  8
0
 10
705.95
 20
12.9928
 11
705.928
 21
13.1185
  0
LINE
  8
0
 10
705.928
 20
13.1185
 11
705.913
 21
13.2451
  0
LINE
  8
0
 10
705.913
 20
13.2451
 11
705.903
 21
13.3724
  0
LINE
  8
0
 10
705.903
 20
13.3724
 11
705.9
 21
13.5
  0
LINE
  8
0
 10
705.9
 20
13.5
 11
705.903
 21
13.6276
  0
LINE
  8
0
 10
705.903
 20
13.6276
 11
705.913
 21
13.7548
  0
LINE
  8
0
 10
705.913
 20
13.7548
 11
705.928
 21
13.8815
  0
LINE
  8
0
 10
705.928
 20
13.8815
 11
705.95
 21
14.0072
  0
LINE
  8
0
 10
705.95
 20
14.0072
 11
705.978
 21
14.1317
  0
LINE
  8
0
 10
705.978
 20
14.1317
 11
706.012
 21
14.2547
  0
LINE
  8
0
 10
706.012
 20
14.2547
 11
706.052
 21
14.3759
  0
LINE
  8
0
 10
706.052
 20
14.3759
 11
706.098
 21
14.495
  0
LINE
  8
0
 10
706.098
 20
14.495
 11
706.15
 21
14.6116
  0
LINE
  8
0
 10
706.15
 20
14.6116
 11
706.207
 21
14.7256
  0
LINE
  8
0
 10
706.207
 20
14.7256
 11
706.27
 21
14.8367
  0
LINE
  8
0
 10
706.27
 20
14.8367
 11
706.338
 21
14.9445
  0
LINE
  8
0
 10
706.338
 20
14.9445
 11
706.412
 21
15.0488
  0
LINE
  8
0
 10
706.412
 20
15.0488
 11
706.49
 21
15.1494
  0
LINE
  8
0
 10
706.49
 20
15.1494
 11
706.574
 21
15.246
  0
LINE
  8
0
 10
706.574
 20
15.246
 11
706.661
 21
15.3385
  0
LINE
  8
0
 10
706.661
 20
15.3385
 11
706.754
 21
15.4265
  0
LINE
  8
0
 10
706.754
 20
15.4265
 11
706.851
 21
15.5098
  0
LINE
  8
0
 10
706.851
 20
15.5098
 11
706.951
 21
15.5883
  0
LINE
  8
0
 10
706.951
 20
15.5883
 11
707.056
 21
15.6618
  0
LINE
  8
0
 10
707.056
 20
15.6618
 11
707.163
 21
15.7301
  0
LINE
  8
0
 10
707.163
 20
15.7301
 11
707.274
 21
15.793
  0
LINE
  8
0
 10
707.274
 20
15.793
 11
707.388
 21
15.8504
  0
LINE
  8
0
 10
707.388
 20
15.8504
 11
707.505
 21
15.9021
  0
LINE
  8
0
 10
707.505
 20
15.9021
 11
707.624
 21
15.948
  0
LINE
  8
0
 10
707.624
 20
15.948
 11
707.745
 21
15.988
  0
LINE
  8
0
 10
707.745
 20
15.988
 11
707.868
 21
16.0221
  0
LINE
  8
0
 10
707.868
 20
16.0221
 11
707.993
 21
16.05
  0
LINE
  8
0
 10
707.993
 20
16.05
 11
708.119
 21
16.0719
  0
LINE
  8
0
 10
708.119
 20
16.0719
 11
708.245
 21
16.0875
  0
LINE
  8
0
 10
708.245
 20
16.0875
 11
708.372
 21
16.0969
  0
LINE
  8
0
 10
708.372
 20
16.0969
 11
708.5
 21
16.1
  0
LINE
  8
0
 10
708.5
 20
16.1
 11
708.628
 21
16.0969
  0
LINE
  8
0
 10
708.628
 20
16.0969
 11
708.755
 21
16.0875
  0
LINE
  8
0
 10
708.755
 20
16.0875
 11
708.881
 21
16.0719
  0
LINE
  8
0
 10
708.881
 20
16.0719
 11
709.007
 21
16.05
  0
LINE
  8
0
 10
709.007
 20
16.05
 11
709.132
 21
16.0221
  0
LINE
  8
0
 10
709.132
 20
16.0221
 11
709.255
 21
15.988
  0
LINE
  8
0
 10
709.255
 20
15.988
 11
709.376
 21
15.948
  0
LINE
  8
0
 10
709.376
 20
15.948
 11
709.495
 21
15.9021
  0
LINE
  8
0
 10
709.495
 20
15.9021
 11
709.612
 21
15.8504
  0
LINE
  8
0
 10
709.612
 20
15.8504
 11
709.726
 21
15.793
  0
LINE
  8
0
 10
709.726
 20
15.793
 11
709.837
 21
15.7301
  0
LINE
  8
0
 10
709.837
 20
15.7301
 11
709.944
 21
15.6618
  0
LINE
  8
0
 10
709.944
 20
15.6618
 11
710.049
 21
15.5883
  0
LINE
  8
0
 10
710.049
 20
15.5883
 11
710.149
 21
15.5098
  0
LINE
  8
0
 10
710.149
 20
15.5098
 11
710.246
 21
15.4265
  0
LINE
  8
0
 10
710.246
 20
15.4265
 11
710.339
 21
15.3385
  0
LINE
  8
0
 10
710.339
 20
15.3385
 11
710.426
 21
15.246
  0
LINE
  8
0
 10
710.426
 20
15.246
 11
710.51
 21
15.1494
  0
LINE
  8
0
 10
710.51
 20
15.1494
 11
710.588
 21
15.0488
  0
LINE
  8
0
 10
710.588
 20
15.0488
 11
710.662
 21
14.9445
  0
LINE
  8
0
 10
710.662
 20
14.9445
 11
710.73
 21
14.8367
  0
LINE
  8
0
 10
710.73
 20
14.8367
 11
710.793
 21
14.7256
  0
LINE
  8
0
 10
710.793
 20
14.7256
 11
710.85
 21
14.6116
  0
LINE
  8
0
 10
710.85
 20
14.6116
 11
710.902
 21
14.495
  0
LINE
  8
0
 10
710.902
 20
14.495
 11
710.948
 21
14.3759
  0
LINE
  8
0
 10
710.948
 20
14.3759
 11
710.988
 21
14.2547
  0
LINE
  8
0
 10
710.988
 20
14.2547
 11
711.022
 21
14.1317
  0
LINE
  8
0
 10
711.022
 20
14.1317
 11
711.05
 21
14.0072
  0
LINE
  8
0
 10
711.05
 20
14.0072
 11
711.072
 21
13.8815
  0
LINE
  8
0
 10
711.072
 20
13.8815
 11
711.087
 21
13.7548
  0
LINE
  8
0
 10
711.087
 20
13.7548
 11
711.097
 21
13.6276
  0
LINE
  8
0
 10
711.097
 20
13.6276
 11
711.1
 21
13.5
  0
LINE
  8
0
 10
711.1
 20
13.5
 11
711.097
 21
13.3724
  0
LINE
  8
0
 10
711.097
 20
13.3724
 11
711.087
 21
13.2451
  0
LINE
  8
0
 10
711.087
 20
13.2451
 11
711.072
 21
13.1185
  0
LINE
  8
0
 10
711.072
 20
13.1185
 11
711.05
 21
12.9928
  0
LINE
  8
0
 10
711.05
 20
12.9928
 11
711.022
 21
12.8682
  0
LINE
  8
0
 10
711.022
 20
12.8682
 11
710.988
 21
12.7453
  0
LINE
  8
0
 10
710.988
 20
12.7453
 11
710.948
 21
12.6241
  0
LINE
  8
0
 10
710.948
 20
12.6241
 11
710.902
 21
12.505
  0
LINE
  8
0
 10
710.902
 20
12.505
 11
710.85
 21
12.3884
  0
LINE
  8
0
 10
710.85
 20
12.3884
 11
710.793
 21
12.2744
  0
LINE
  8
0
 10
710.793
 20
12.2744
 11
710.73
 21
12.1633
  0
LINE
  8
0
 10
710.73
 20
12.1633
 11
710.662
 21
12.0555
  0
LINE
  8
0
 10
710.662
 20
12.0555
 11
710.588
 21
11.9512
  0
LINE
  8
0
 10
710.588
 20
11.9512
 11
710.51
 21
11.8506
  0
LINE
  8
0
 10
710.51
 20
11.8506
 11
710.426
 21
11.7539
  0
LINE
  8
0
 10
710.426
 20
11.7539
 11
710.339
 21
11.6615
  0
LINE
  8
0
 10
710.339
 20
11.6615
 11
710.246
 21
11.5735
  0
LINE
  8
0
 10
710.246
 20
11.5735
 11
710.149
 21
11.4902
  0
LINE
  8
0
 10
710.149
 20
11.4902
 11
710.049
 21
11.4117
  0
LINE
  8
0
 10
710.049
 20
11.4117
 11
709.944
 21
11.3382
  0
LINE
  8
0
 10
709.944
 20
11.3382
 11
709.837
 21
11.2699
  0
LINE
  8
0
 10
709.837
 20
11.2699
 11
709.726
 21
11.207
  0
LINE
  8
0
 10
709.726
 20
11.207
 11
709.612
 21
11.1496
  0
LINE
  8
0
 10
709.612
 20
11.1496
 11
709.495
 21
11.0979
  0
LINE
  8
0
 10
709.495
 20
11.0979
 11
709.376
 21
11.052
  0
LINE
  8
0
 10
709.376
 20
11.052
 11
709.255
 21
11.0119
  0
LINE
  8
0
 10
709.255
 20
11.0119
 11
709.132
 21
10.9779
  0
LINE
  8
0
 10
709.132
 20
10.9779
 11
709.007
 21
10.95
  0
LINE
  8
0
 10
709.007
 20
10.95
 11
708.881
 21
10.9281
  0
LINE
  8
0
 10
708.881
 20
10.9281
 11
708.755
 21
10.9125
  0
LINE
  8
0
 10
708.755
 20
10.9125
 11
708.628
 21
10.9031
  0
LINE
  8
0
 10
708.628
 20
10.9031
 11
708.5
 21
10.9
  0
LINE
  8
0
 10
708.5
 20
10.9
 11
708.372
 21
10.9031
  0
ENDSEC
  0
SECTION
  2
OBJECTS
  0
DICTIONARY
  0
ENDSEC
  0
EOF
