  0
SECTION
  2
BLOCKS
  0
ENDSEC
  0
SECTION
  2
ENTITIES
  0
LINE
  8
0
 10
949.323
 20
0.228851
 11
958.623
 21
0.914902
  0
LINE
  8
0
 10
958.623
 20
0.914902
 11
967.879
 21
2.05646
  0
LINE
  8
0
 10
967.879
 20
2.05646
 11
977.067
 21
3.65079
  0
LINE
  8
0
 10
977.067
 20
3.65079
 11
986.166
 21
5.69406
  0
LINE
  8
0
 10
986.166
 20
5.69406
 11
995.154
 21
8.18134
  0
LINE
  8
0
 10
995.154
 20
8.18134
 11
1004.01
 21
11.1066
  0
LINE
  8
0
 10
1004.01
 20
11.1066
 11
1012.71
 21
14.4629
  0
LINE
  8
0
 10
1012.71
 20
14.4629
 11
1021.24
 21
18.242
  0
LINE
  8
0
 10
1021.24
 20
18.242
 11
1029.57
 21
22.435
  0
LINE
  8
0
 10
1029.57
 20
22.435
 11
1037.68
 21
27.0316
  0
LINE
  8
0
 10
1037.68
 20
27.0316
 11
1045.56
 21
32.0208
  0
LINE
  8
0
 10
1045.56
 20
32.0208
 11
1053.18
 21
37.3906
  0
LINE
  8
0
 10
1053.18
 20
37.3906
 11
1060.53
 21
43.128
  0
LINE
  8
0
 10
1060.53
 20
43.128
 11
1067.6
 21
49.2193
  0
LINE
  8
0
 10
1067.6
 20
49.2193
 11
1074.35
 21
55.6497
  0
LINE
  8
0
 10
1074.35
 20
55.6497
 11
1080.78
 21
62.4038
  0
LINE
  8
0
 10
1080.78
 20
62.4038
 11
1086.87
 21
69.4653
  0
LINE
  8
0
 10
1086.87
 20
69.4653
 11
1092.61
 21
76.8171
  0
LINE
  8
0
 10
1092.61
 20
76.8171
 11
1097.98
 21
84.4417
  0
LINE
  8
0
 10
1097.98
 20
84.4417
 11
1102.97
 21
92.3205
  0
LINE
  8
0
 10
1102.97
 20
92.3205
 11
1107.57
 21
100.435
  0
LINE
  8
0
 10
1107.57
 20
100.435
 11
1111.76
 21
108.765
  0
LINE
  8
0
 10
1111.76
 20
108.765
 11
1115.54
 21
117.29
  0
LINE
  8
0
 10
1115.54
 20
117.29
 11
1118.89
 21
125.991
  0
LINE
  8
0
 10
1118.89
 20
125.991
 11
1121.82
 21
134.846
  0
LINE
  8
0
 10
1121.82
 20
134.846
 11
1124.31
 21
143.834
  0
LINE
  8
0
 10
1124.31
 20
143.834
 11
1126.35
 21
152.933
  0
LINE
  8
0
 10
1126.35
 20
152.933
 11
1127.2
 21
157.82
  0
LINE
  8
0
 10
1127.2
 20
157.82
 11
1000.2
 21
182.506
  0
LINE
  8
0
 10
1000.2
 20
182.506
 11
985.89
 21
108.884
  0
LINE
  8
0
 10
985.89
 20
108.884
 11
985.626
 21
107.685
  0
LINE
  8
0
 10
985.626
 20
107.685
 11
985.304
 21
106.501
  0
LINE
  8
0
 10
985.304
 20
106.501
 11
984.924
 21
105.335
  0
LINE
  8
0
 10
984.924
 20
105.335
 11
984.487
 21
104.188
  0
LINE
  8
0
 10
984.487
 20
104.188
 11
983.995
 21
103.064
  0
LINE
  8
0
 10
983.995
 20
103.064
 11
983.448
 21
101.966
  0
LINE
  8
0
 10
983.448
 20
101.966
 11
982.848
 21
100.895
  0
LINE
  8
0
 10
982.848
 20
100.895
 11
982.196
 21
99.8557
  0
LINE
  8
0
 10
982.196
 20
99.8557
 11
981.494
 21
98.8494
  0
LINE
  8
0
 10
981.494
 20
98.8494
 11
980.743
 21
97.8788
  0
LINE
  8
0
 10
980.743
 20
97.8788
 11
979.946
 21
96.9461
  0
LINE
  8
0
 10
979.946
 20
96.9461
 11
979.104
 21
96.0538
  0
LINE
  8
0
 10
979.104
 20
96.0538
 11
978.219
 21
95.2038
  0
LINE
  8
0
 10
978.219
 20
95.2038
 11
977.293
 21
94.3982
  0
LINE
  8
0
 10
977.293
 20
94.3982
 11
976.329
 21
93.6391
  0
LINE
  8
0
 10
976.329
 20
93.6391
 11
975.329
 21
92.9282
  0
LINE
  8
0
 10
975.329
 20
92.9282
 11
974.295
 21
92.2672
  0
LINE
  8
0
 10
974.295
 20
92.2672
 11
973.23
 21
91.6577
  0
LINE
  8
0
 10
973.23
 20
91.6577
 11
972.136
 21
91.1012
  0
LINE
  8
0
 10
972.136
 20
91.1012
 11
971.017
 21
90.5991
  0
LINE
  8
0
 10
971.017
 20
90.5991
 11
969.874
 21
90.1525
  0
LINE
  8
0
 10
969.874
 20
90.1525
 11
968.71
 21
89.7625
  0
LINE
  8
0
 10
968.71
 20
89.7625
 11
967.529
 21
89.4301
  0
LINE
  8
0
 10
967.529
 20
89.4301
 11
966.333
 21
89.156
  0
LINE
  8
0
 10
966.333
 20
89.156
 11
965.125
 21
88.9409
  0
LINE
  8
0
 10
965.125
 20
88.9409
 11
963.908
 21
88.7854
  0
LINE
  8
0
 10
963.908
 20
88.7854
 11
962.685
 21
88.6898
  0
LINE
  8
0
 10
962.685
 20
88.6898
 11
961.458
 21
88.6544
  0
LINE
  8
0
 10
961.458
 20
88.6544
 11
960.231
 21
88.6791
  0
LINE
  8
0
 10
960.231
 20
88.6791
 11
959.007
 21
88.7641
  0
LINE
  8
0
 10
959.007
 20
88.7641
 11
957.789
 21
88.9089
  0
LINE
  8
0
 10
957.789
 20
88.9089
 11
956.579
 21
89.1134
  0
LINE
  8
0
 10
956.579
 20
89.1134
 11
258.642
 21
224.779
  0
LINE
  8
0
 10
258.642
 20
224.779
 11
257.443
 21
225.042
  0
LINE
  8
0
 10
257.443
 20
225.042
 11
256.259
 21
225.364
  0
LINE
  8
0
 10
256.259
 20
225.364
 11
255.093
 21
225.744
  0
LINE
  8
0
 10
255.093
 20
225.744
 11
253.946
 21
226.181
  0
LINE
  8
0
 10
253.946
 20
226.181
 11
252.822
 21
226.673
  0
LINE
  8
0
 10
252.822
 20
226.673
 11
251.723
 21
227.22
  0
LINE
  8
0
 10
251.723
 20
227.22
 11
250.653
 21
227.82
  0
LINE
  8
0
 10
250.653
 20
227.82
 11
249.614
 21
228.472
  0
LINE
  8
0
 10
249.614
 20
228.472
 11
248.607
 21
229.174
  0
LINE
  8
0
 10
248.607
 20
229.174
 11
247.637
 21
229.925
  0
LINE
  8
0
 10
247.637
 20
229.925
 11
246.704
 21
230.722
  0
LINE
  8
0
 10
246.704
 20
230.722
 11
245.812
 21
231.565
  0
LINE
  8
0
 10
245.812
 20
231.565
 11
244.962
 21
232.45
  0
LINE
  8
0
 10
244.962
 20
232.45
 11
244.156
 21
233.375
  0
LINE
  8
0
 10
244.156
 20
233.375
 11
243.397
 21
234.339
  0
LINE
  8
0
 10
243.397
 20
234.339
 11
242.686
 21
235.339
  0
LINE
  8
0
 10
242.686
 20
235.339
 11
242.025
 21
236.373
  0
LINE
  8
0
 10
242.025
 20
236.373
 11
241.416
 21
237.438
  0
LINE
  8
0
 10
241.416
 20
237.438
 11
240.859
 21
238.532
  0
LINE
  8
0
 10
240.859
 20
238.532
 11
240.357
 21
239.652
  0
LINE
  8
0
 10
240.357
 20
239.652
 11
239.91
 21
240.794
  0
LINE
  8
0
 10
239.91
 20
240.794
 11
239.52
 21
241.958
  0
LINE
  8
0
 10
239.52
 20
241.958
 11
239.188
 21
243.139
  0
LINE
  8
0
 10
239.188
 20
243.139
 11
238.914
 21
244.335
  0
LINE
  8
0
 10
238.914
 20
244.335
 11
238.699
 21
245.543
  0
LINE
  8
0
 10
238.699
 20
245.543
 11
238.543
 21
246.76
  0
LINE
  8
0
 10
238.543
 20
246.76
 11
238.448
 21
247.984
  0
LINE
  8
0
 10
238.448
 20
247.984
 11
238.412
 21
249.21
  0
LINE
  8
0
 10
238.412
 20
249.21
 11
238.437
 21
250.437
  0
LINE
  8
0
 10
238.437
 20
250.437
 11
238.522
 21
251.661
  0
LINE
  8
0
 10
238.522
 20
251.661
 11
238.667
 21
252.88
  0
LINE
  8
0
 10
238.667
 20
252.88
 11
238.871
 21
254.09
  0
LINE
  8
0
 10
238.871
 20
254.09
 11
253.182
 21
327.712
  0
LINE
  8
0
 10
253.182
 20
327.712
 11
-985.999
 21
568.584
  0
LINE
  8
0
 10
-985.999
 20
568.584
 11
-987.043
 21
563.735
  0
LINE
  8
0
 10
-987.043
 20
563.735
 11
-988.557
 21
554.533
  0
LINE
  8
0
 10
-988.557
 20
554.533
 11
-989.618
 21
545.268
  0
LINE
  8
0
 10
-989.618
 20
545.268
 11
-990.223
 21
535.962
  0
LINE
  8
0
 10
-990.223
 20
535.962
 11
-990.37
 21
526.637
  0
LINE
  8
0
 10
-990.37
 20
526.637
 11
-990.06
 21
517.317
  0
LINE
  8
0
 10
-990.06
 20
517.317
 11
-989.293
 21
508.023
  0
LINE
  8
0
 10
-989.293
 20
508.023
 11
-988.071
 21
498.777
  0
LINE
  8
0
 10
-988.071
 20
498.777
 11
-986.396
 21
489.603
  0
LINE
  8
0
 10
-986.396
 20
489.603
 11
-984.274
 21
480.522
  0
LINE
  8
0
 10
-984.274
 20
480.522
 11
-981.708
 21
471.556
  0
LINE
  8
0
 10
-981.708
 20
471.556
 11
-978.706
 21
462.727
  0
LINE
  8
0
 10
-978.706
 20
462.727
 11
-975.273
 21
454.056
  0
LINE
  8
0
 10
-975.273
 20
454.056
 11
-971.42
 21
445.564
  0
LINE
  8
0
 10
-971.42
 20
445.564
 11
-967.155
 21
437.271
  0
LINE
  8
0
 10
-967.155
 20
437.271
 11
-962.487
 21
429.197
  0
LINE
  8
0
 10
-962.487
 20
429.197
 11
-957.43
 21
421.362
  0
LINE
  8
0
 10
-957.43
 20
421.362
 11
-951.993
 21
413.785
  0
LINE
  8
0
 10
-951.993
 20
413.785
 11
-946.192
 21
406.483
  0
LINE
  8
0
 10
-946.192
 20
406.483
 11
-940.039
 21
399.475
  0
LINE
  8
0
 10
-940.039
 20
399.475
 11
-933.55
 21
392.778
  0
LINE
  8
0
 10
-933.55
 20
392.778
 11
-926.74
 21
386.406
  0
LINE
  8
0
 10
-926.74
 20
386.406
 11
-919.626
 21
380.377
  0
LINE
  8
0
 10
-919.626
 20
380.377
 11
-912.224
 21
374.704
  0
LINE
  8
0
 10
-912.224
 20
374.704
 11
-904.553
 21
369.401
  0
LINE
  8
0
 10
-904.553
 20
369.401
 11
-896.631
 21
364.48
  0
LINE
  8
0
 10
-896.631
 20
364.48
 11
-888.477
 21
359.955
  0
LINE
  8
0
 10
-888.477
 20
359.955
 11
-880.111
 21
355.835
  0
LINE
  8
0
 10
-880.111
 20
355.835
 11
-871.553
 21
352.13
  0
LINE
  8
0
 10
-871.553
 20
352.13
 11
0
 21
0
  0
LINE
  8
0
 10
0
 20
0
 11
940
 21
0
  0
LINE
  8
0
 10
940
 20
0
 11
949.323
 21
0.228851
  0
ENDSEC
  0
SECTION
  2
OBJECTS
  0
DICTIONARY
  0
ENDSEC
  0
EOF
